<svg xmlns="http://www.w3.org/2000/svg" xmlns:xlink="http://www.w3.org/1999/xlink" width="1080" zoomAndPan="magnify" viewBox="0 0 810 809.999993" height="1080" preserveAspectRatio="xMidYMid meet" version="1.0"><path fill="#ee88b7" d="M 379.800781 288.675781 L 428.945312 288.675781 L 428.945312 728.1875 L 379.800781 728.1875 Z M 379.800781 288.675781 " fill-opacity="0.99" fill-rule="evenodd"/><path stroke-linecap="butt" transform="matrix(0.638298, 0, 0, 0.637904, 84.290742, 94.551198)" fill="none" stroke-linejoin="miter" d="M 501.459274 253.919244 L 501.459274 306.943225 " stroke="#ee88b7" stroke-width="3.577" stroke-opacity="0.992" stroke-miterlimit="4"/><path fill="#f9bd4b" d="M 430.941406 194.839844 C 433.578125 219.003906 425.570312 244.738281 404.40625 261.445312 C 404.40625 261.445312 376.546875 249.71875 377.789062 194.839844 C 379.023438 140.511719 403.578125 81.792969 404.367188 96.441406 C 405.464844 116.800781 427.671875 164.871094 430.941406 194.839844 Z M 430.941406 194.839844 " fill-opacity="0.99" fill-rule="evenodd"/><path fill="#fbd447" d="M 418.171875 203.144531 C 418.554688 208.910156 415.015625 229.351562 404.019531 238.191406 C 404.019531 238.191406 389.921875 232.175781 390.566406 203.144531 C 391.207031 174.402344 403.960938 143.339844 404.371094 151.089844 C 404.9375 161.859375 417.113281 187.230469 418.171875 203.144531 Z M 418.171875 203.144531 " fill-opacity="0.99" fill-rule="evenodd"/><path fill="#f9bd4b" d="M 428.945312 375.820312 L 428.945312 434.550781 L 379.800781 402.34375 L 379.800781 343.617188 Z M 428.945312 375.820312 " fill-opacity="0.99" fill-rule="evenodd"/><path fill="#e55ea0" d="M 428.945312 317.09375 L 428.945312 375.820312 L 379.800781 343.617188 L 379.800781 288.675781 Z M 428.945312 317.09375 " fill-opacity="0.99" fill-rule="evenodd"/><path fill="#fbd547" d="M 428.945312 434.550781 L 428.945312 493.277344 L 379.800781 461.070312 L 379.800781 402.34375 Z M 428.945312 434.550781 " fill-opacity="0.99" fill-rule="evenodd"/><path fill="#8ad2ad" d="M 428.945312 493.277344 L 428.945312 552.003906 L 379.800781 519.800781 L 379.800781 461.070312 Z M 428.945312 493.277344 " fill-opacity="0.99" fill-rule="evenodd"/><path fill="#55c9c9" d="M 428.945312 552.003906 L 428.945312 610.734375 L 379.800781 578.527344 L 379.800781 519.800781 Z M 428.945312 552.003906 " fill-opacity="0.99" fill-rule="evenodd"/><path fill="#3fb0c3" d="M 428.945312 610.734375 L 428.945312 669.460938 L 379.800781 637.253906 L 379.800781 578.527344 Z M 428.945312 610.734375 " fill-opacity="0.99" fill-rule="evenodd"/><path fill="#737aca" d="M 428.945312 669.460938 L 428.945312 728.1875 L 379.800781 695.984375 L 379.800781 637.253906 Z M 428.945312 669.460938 " fill-opacity="0.99" fill-rule="evenodd"/><path fill="#ffffff" d="M 393.136719 303.996094 C 393.136719 304.363281 393.0625 304.714844 392.910156 305.054688 C 392.757812 305.394531 392.542969 305.691406 392.265625 305.953125 C 391.988281 306.210938 391.664062 306.410156 391.300781 306.550781 C 390.9375 306.691406 390.554688 306.761719 390.160156 306.761719 C 389.765625 306.761719 389.386719 306.691406 389.023438 306.550781 C 388.660156 306.410156 388.335938 306.210938 388.058594 305.953125 C 387.777344 305.691406 387.5625 305.394531 387.414062 305.054688 C 387.261719 304.714844 387.1875 304.363281 387.1875 303.996094 C 387.1875 303.632812 387.261719 303.277344 387.414062 302.941406 C 387.5625 302.601562 387.777344 302.304688 388.058594 302.042969 C 388.335938 301.785156 388.660156 301.585938 389.023438 301.445312 C 389.386719 301.304688 389.765625 301.234375 390.160156 301.234375 C 390.554688 301.234375 390.9375 301.304688 391.300781 301.445312 C 391.664062 301.585938 391.988281 301.785156 392.265625 302.042969 C 392.542969 302.304688 392.757812 302.601562 392.910156 302.941406 C 393.0625 303.277344 393.136719 303.632812 393.136719 303.996094 Z M 393.136719 303.996094 " fill-opacity="0.99" fill-rule="evenodd"/><path fill="#ffffff" d="M 419.945312 335.476562 C 419.945312 335.84375 419.871094 336.195312 419.71875 336.535156 C 419.566406 336.875 419.351562 337.171875 419.074219 337.429688 C 418.792969 337.691406 418.472656 337.890625 418.109375 338.03125 C 417.742188 338.171875 417.363281 338.242188 416.96875 338.242188 C 416.574219 338.242188 416.195312 338.171875 415.832031 338.03125 C 415.46875 337.890625 415.144531 337.691406 414.867188 337.429688 C 414.585938 337.171875 414.371094 336.875 414.222656 336.535156 C 414.070312 336.195312 413.996094 335.84375 413.996094 335.476562 C 413.996094 335.113281 414.070312 334.757812 414.222656 334.421875 C 414.371094 334.082031 414.585938 333.785156 414.867188 333.523438 C 415.144531 333.265625 415.46875 333.066406 415.832031 332.925781 C 416.195312 332.785156 416.574219 332.714844 416.96875 332.714844 C 417.363281 332.714844 417.742188 332.785156 418.109375 332.925781 C 418.472656 333.066406 418.792969 333.265625 419.074219 333.523438 C 419.351562 333.785156 419.566406 334.082031 419.71875 334.421875 C 419.871094 334.757812 419.945312 335.113281 419.945312 335.476562 Z M 419.945312 335.476562 " fill-opacity="0.99" fill-rule="evenodd"/><path fill="#ffffff" d="M 418.605469 300.074219 C 418.605469 300.273438 418.5625 300.46875 418.480469 300.65625 C 418.398438 300.839844 418.277344 301.003906 418.125 301.148438 C 417.972656 301.289062 417.796875 301.398438 417.59375 301.476562 C 417.394531 301.554688 417.1875 301.59375 416.96875 301.59375 C 416.753906 301.59375 416.542969 301.554688 416.34375 301.476562 C 416.144531 301.398438 415.96875 301.289062 415.8125 301.148438 C 415.660156 301.003906 415.542969 300.839844 415.460938 300.65625 C 415.375 300.46875 415.335938 300.273438 415.335938 300.074219 C 415.335938 299.871094 415.375 299.679688 415.460938 299.492188 C 415.542969 299.308594 415.660156 299.144531 415.8125 299 C 415.96875 298.859375 416.144531 298.75 416.34375 298.671875 C 416.542969 298.59375 416.753906 298.554688 416.96875 298.554688 C 417.1875 298.554688 417.394531 298.59375 417.59375 298.671875 C 417.796875 298.75 417.972656 298.859375 418.125 299 C 418.277344 299.144531 418.398438 299.308594 418.480469 299.492188 C 418.5625 299.679688 418.605469 299.871094 418.605469 300.074219 Z M 418.605469 300.074219 " fill-opacity="0.99" fill-rule="evenodd"/><path fill="#ffffff" d="M 398.742188 344.523438 C 398.742188 344.726562 398.699219 344.917969 398.617188 345.105469 C 398.535156 345.289062 398.417969 345.453125 398.265625 345.597656 C 398.109375 345.738281 397.933594 345.847656 397.734375 345.925781 C 397.53125 346.003906 397.324219 346.042969 397.109375 346.042969 C 396.890625 346.042969 396.683594 346.003906 396.480469 345.925781 C 396.28125 345.847656 396.105469 345.738281 395.953125 345.597656 C 395.796875 345.453125 395.679688 345.289062 395.597656 345.105469 C 395.515625 344.917969 395.472656 344.726562 395.472656 344.523438 C 395.472656 344.324219 395.515625 344.128906 395.597656 343.941406 C 395.679688 343.757812 395.796875 343.59375 395.953125 343.449219 C 396.105469 343.308594 396.28125 343.199219 396.480469 343.121094 C 396.683594 343.042969 396.890625 343.003906 397.109375 343.003906 C 397.324219 343.003906 397.53125 343.042969 397.734375 343.121094 C 397.933594 343.199219 398.109375 343.308594 398.265625 343.449219 C 398.417969 343.59375 398.535156 343.757812 398.617188 343.941406 C 398.699219 344.128906 398.742188 344.324219 398.742188 344.523438 Z M 398.742188 344.523438 " fill-opacity="0.99" fill-rule="evenodd"/><path fill="#ffffff" d="M 413.914062 411.164062 C 413.914062 411.53125 413.839844 411.882812 413.6875 412.222656 C 413.535156 412.558594 413.320312 412.859375 413.042969 413.117188 C 412.761719 413.375 412.441406 413.578125 412.078125 413.714844 C 411.710938 413.855469 411.332031 413.925781 410.9375 413.925781 C 410.542969 413.925781 410.164062 413.855469 409.800781 413.714844 C 409.433594 413.578125 409.113281 413.375 408.835938 413.117188 C 408.554688 412.859375 408.339844 412.558594 408.1875 412.222656 C 408.039062 411.882812 407.964844 411.53125 407.964844 411.164062 C 407.964844 410.796875 408.039062 410.445312 408.1875 410.105469 C 408.339844 409.769531 408.554688 409.46875 408.835938 409.210938 C 409.113281 408.953125 409.433594 408.75 409.800781 408.613281 C 410.164062 408.472656 410.542969 408.402344 410.9375 408.402344 C 411.332031 408.402344 411.710938 408.472656 412.078125 408.613281 C 412.441406 408.75 412.761719 408.953125 413.042969 409.210938 C 413.320312 409.46875 413.535156 409.769531 413.6875 410.105469 C 413.839844 410.445312 413.914062 410.796875 413.914062 411.164062 Z M 413.914062 411.164062 " fill-opacity="0.99" fill-rule="evenodd"/><path fill="#ffffff" d="M 393.808594 476.804688 C 393.808594 477.171875 393.730469 477.523438 393.582031 477.859375 C 393.429688 478.199219 393.214844 478.5 392.9375 478.757812 C 392.65625 479.015625 392.335938 479.214844 391.96875 479.355469 C 391.605469 479.496094 391.226562 479.566406 390.832031 479.566406 C 390.4375 479.566406 390.058594 479.496094 389.695312 479.355469 C 389.328125 479.214844 389.007812 479.015625 388.726562 478.757812 C 388.449219 478.5 388.234375 478.199219 388.082031 477.859375 C 387.933594 477.523438 387.855469 477.171875 387.855469 476.804688 C 387.855469 476.4375 387.933594 476.085938 388.082031 475.746094 C 388.234375 475.40625 388.449219 475.109375 388.726562 474.851562 C 389.007812 474.589844 389.328125 474.390625 389.695312 474.25 C 390.058594 474.109375 390.4375 474.039062 390.832031 474.039062 C 391.226562 474.039062 391.605469 474.109375 391.96875 474.25 C 392.335938 474.390625 392.65625 474.589844 392.9375 474.851562 C 393.214844 475.109375 393.429688 475.40625 393.582031 475.746094 C 393.730469 476.085938 393.808594 476.4375 393.808594 476.804688 Z M 393.808594 476.804688 " fill-opacity="0.99" fill-rule="evenodd"/><path fill="#ffffff" d="M 396.488281 370.308594 C 396.488281 370.671875 396.414062 371.027344 396.261719 371.363281 C 396.109375 371.703125 395.894531 372 395.617188 372.261719 C 395.335938 372.519531 395.015625 372.71875 394.652344 372.859375 C 394.285156 373 393.90625 373.070312 393.511719 373.070312 C 393.117188 373.070312 392.738281 373 392.375 372.859375 C 392.011719 372.71875 391.6875 372.519531 391.410156 372.261719 C 391.128906 372 390.914062 371.703125 390.765625 371.363281 C 390.613281 371.027344 390.539062 370.671875 390.539062 370.308594 C 390.539062 369.941406 390.613281 369.589844 390.765625 369.25 C 390.914062 368.910156 391.128906 368.613281 391.410156 368.351562 C 391.6875 368.09375 392.011719 367.894531 392.375 367.753906 C 392.738281 367.613281 393.117188 367.542969 393.511719 367.542969 C 393.90625 367.542969 394.285156 367.613281 394.652344 367.753906 C 395.015625 367.894531 395.335938 368.09375 395.617188 368.351562 C 395.894531 368.613281 396.109375 368.910156 396.261719 369.25 C 396.414062 369.589844 396.488281 369.941406 396.488281 370.308594 Z M 396.488281 370.308594 " fill-opacity="0.99" fill-rule="evenodd"/><path fill="#ffffff" d="M 420.617188 450.011719 C 420.617188 450.378906 420.539062 450.730469 420.390625 451.070312 C 420.238281 451.40625 420.023438 451.707031 419.742188 451.964844 C 419.464844 452.226562 419.144531 452.425781 418.777344 452.566406 C 418.414062 452.703125 418.035156 452.773438 417.640625 452.773438 C 417.246094 452.773438 416.867188 452.703125 416.5 452.566406 C 416.136719 452.425781 415.816406 452.226562 415.535156 451.964844 C 415.257812 451.707031 415.042969 451.40625 414.890625 451.070312 C 414.742188 450.730469 414.664062 450.378906 414.664062 450.011719 C 414.664062 449.644531 414.742188 449.292969 414.890625 448.953125 C 415.042969 448.617188 415.257812 448.316406 415.535156 448.058594 C 415.816406 447.800781 416.136719 447.601562 416.5 447.460938 C 416.867188 447.320312 417.246094 447.25 417.640625 447.25 C 418.035156 447.25 418.414062 447.320312 418.777344 447.460938 C 419.144531 447.601562 419.464844 447.800781 419.742188 448.058594 C 420.023438 448.316406 420.238281 448.617188 420.390625 448.953125 C 420.539062 449.292969 420.617188 449.644531 420.617188 450.011719 Z M 420.617188 450.011719 " fill-opacity="0.99" fill-rule="evenodd"/><path fill="#ffffff" d="M 395.148438 425.898438 C 395.148438 426.265625 395.074219 426.617188 394.921875 426.957031 C 394.769531 427.296875 394.554688 427.59375 394.277344 427.851562 C 393.996094 428.113281 393.675781 428.3125 393.3125 428.453125 C 392.945312 428.59375 392.566406 428.664062 392.171875 428.664062 C 391.777344 428.664062 391.398438 428.59375 391.035156 428.453125 C 390.667969 428.3125 390.347656 428.113281 390.070312 427.851562 C 389.789062 427.59375 389.574219 427.296875 389.421875 426.957031 C 389.273438 426.617188 389.195312 426.265625 389.195312 425.898438 C 389.195312 425.535156 389.273438 425.179688 389.421875 424.84375 C 389.574219 424.503906 389.789062 424.203125 390.070312 423.945312 C 390.347656 423.6875 390.667969 423.488281 391.035156 423.347656 C 391.398438 423.207031 391.777344 423.136719 392.171875 423.136719 C 392.566406 423.136719 392.945312 423.207031 393.3125 423.347656 C 393.675781 423.488281 393.996094 423.6875 394.277344 423.945312 C 394.554688 424.203125 394.769531 424.503906 394.921875 424.84375 C 395.074219 425.179688 395.148438 425.53125 395.148438 425.898438 Z M 395.148438 425.898438 " fill-opacity="0.99" fill-rule="evenodd"/><path fill="#ffffff" d="M 416.59375 384.46875 C 416.59375 384.667969 416.550781 384.863281 416.46875 385.046875 C 416.386719 385.234375 416.269531 385.398438 416.117188 385.539062 C 415.960938 385.683594 415.785156 385.792969 415.585938 385.871094 C 415.382812 385.945312 415.175781 385.984375 414.960938 385.984375 C 414.742188 385.984375 414.535156 385.945312 414.332031 385.871094 C 414.132812 385.792969 413.957031 385.683594 413.804688 385.539062 C 413.648438 385.398438 413.53125 385.234375 413.449219 385.046875 C 413.367188 384.863281 413.324219 384.667969 413.324219 384.46875 C 413.324219 384.265625 413.367188 384.074219 413.449219 383.886719 C 413.53125 383.699219 413.648438 383.535156 413.804688 383.394531 C 413.957031 383.25 414.132812 383.140625 414.332031 383.066406 C 414.535156 382.988281 414.742188 382.949219 414.960938 382.949219 C 415.175781 382.949219 415.382812 382.988281 415.585938 383.066406 C 415.785156 383.140625 415.960938 383.25 416.117188 383.394531 C 416.269531 383.535156 416.386719 383.699219 416.46875 383.886719 C 416.550781 384.074219 416.59375 384.265625 416.59375 384.46875 Z M 416.59375 384.46875 " fill-opacity="0.99" fill-rule="evenodd"/><path fill="#ffffff" d="M 396.289062 396.78125 C 396.289062 397.046875 396.234375 397.300781 396.125 397.542969 C 396.015625 397.789062 395.863281 398.003906 395.660156 398.191406 C 395.460938 398.375 395.226562 398.519531 394.964844 398.621094 C 394.703125 398.722656 394.429688 398.773438 394.144531 398.773438 C 393.859375 398.773438 393.585938 398.722656 393.324219 398.621094 C 393.058594 398.519531 392.828125 398.375 392.625 398.191406 C 392.425781 398.003906 392.269531 397.789062 392.160156 397.542969 C 392.054688 397.300781 392 397.046875 392 396.78125 C 392 396.515625 392.054688 396.261719 392.160156 396.019531 C 392.269531 395.773438 392.425781 395.558594 392.625 395.371094 C 392.828125 395.1875 393.058594 395.042969 393.324219 394.941406 C 393.585938 394.839844 393.859375 394.789062 394.144531 394.789062 C 394.429688 394.789062 394.703125 394.839844 394.964844 394.941406 C 395.226562 395.042969 395.460938 395.1875 395.660156 395.371094 C 395.863281 395.558594 396.015625 395.773438 396.125 396.019531 C 396.234375 396.261719 396.289062 396.515625 396.289062 396.78125 Z M 396.289062 396.78125 " fill-opacity="0.99" fill-rule="evenodd"/><path fill="#ffffff" d="M 420.929688 361.261719 C 420.929688 361.523438 420.878906 361.777344 420.769531 362.023438 C 420.660156 362.265625 420.503906 362.480469 420.304688 362.667969 C 420.101562 362.855469 419.871094 363 419.609375 363.101562 C 419.34375 363.203125 419.070312 363.253906 418.785156 363.253906 C 418.503906 363.253906 418.230469 363.203125 417.964844 363.101562 C 417.703125 363 417.472656 362.855469 417.269531 362.667969 C 417.070312 362.480469 416.914062 362.265625 416.804688 362.023438 C 416.695312 361.777344 416.640625 361.523438 416.640625 361.261719 C 416.640625 360.996094 416.695312 360.742188 416.804688 360.5 C 416.914062 360.253906 417.070312 360.039062 417.269531 359.851562 C 417.472656 359.664062 417.703125 359.519531 417.964844 359.421875 C 418.230469 359.320312 418.503906 359.269531 418.785156 359.269531 C 419.070312 359.269531 419.34375 359.320312 419.609375 359.421875 C 419.871094 359.519531 420.101562 359.664062 420.304688 359.851562 C 420.503906 360.039062 420.660156 360.253906 420.769531 360.5 C 420.878906 360.742188 420.929688 360.996094 420.929688 361.261719 Z M 420.929688 361.261719 " fill-opacity="0.99" fill-rule="evenodd"/><path fill="#ffffff" d="M 421.808594 401.042969 C 421.808594 401.246094 421.765625 401.4375 421.683594 401.625 C 421.601562 401.8125 421.480469 401.976562 421.328125 402.117188 C 421.175781 402.257812 421 402.371094 420.796875 402.445312 C 420.597656 402.523438 420.390625 402.5625 420.171875 402.5625 C 419.957031 402.5625 419.746094 402.523438 419.546875 402.445312 C 419.347656 402.371094 419.167969 402.257812 419.015625 402.117188 C 418.863281 401.976562 418.746094 401.8125 418.660156 401.625 C 418.578125 401.4375 418.539062 401.246094 418.539062 401.042969 C 418.539062 400.84375 418.578125 400.648438 418.660156 400.464844 C 418.746094 400.277344 418.863281 400.113281 419.015625 399.96875 C 419.167969 399.828125 419.347656 399.71875 419.546875 399.640625 C 419.746094 399.5625 419.957031 399.527344 420.171875 399.527344 C 420.390625 399.527344 420.597656 399.5625 420.796875 399.640625 C 421 399.71875 421.175781 399.828125 421.328125 399.96875 C 421.480469 400.113281 421.601562 400.277344 421.683594 400.464844 C 421.765625 400.648438 421.808594 400.84375 421.808594 401.042969 Z M 421.808594 401.042969 " fill-opacity="0.99" fill-rule="evenodd"/><path fill="#ffffff" d="M 403.871094 317.214844 C 403.871094 317.476562 403.816406 317.734375 403.707031 317.976562 C 403.597656 318.21875 403.445312 318.4375 403.242188 318.621094 C 403.042969 318.808594 402.808594 318.953125 402.546875 319.054688 C 402.285156 319.15625 402.011719 319.207031 401.726562 319.207031 C 401.441406 319.207031 401.167969 319.15625 400.90625 319.054688 C 400.640625 318.953125 400.410156 318.808594 400.210938 318.621094 C 400.007812 318.4375 399.851562 318.21875 399.746094 317.976562 C 399.636719 317.734375 399.582031 317.476562 399.582031 317.214844 C 399.582031 316.949219 399.636719 316.695312 399.746094 316.453125 C 399.851562 316.207031 400.007812 315.992188 400.210938 315.804688 C 400.410156 315.621094 400.640625 315.476562 400.90625 315.375 C 401.167969 315.273438 401.441406 315.222656 401.726562 315.222656 C 402.011719 315.222656 402.285156 315.273438 402.546875 315.375 C 402.808594 315.476562 403.042969 315.621094 403.242188 315.804688 C 403.445312 315.992188 403.597656 316.207031 403.707031 316.453125 C 403.816406 316.695312 403.871094 316.949219 403.871094 317.214844 Z M 403.871094 317.214844 " fill-opacity="0.99" fill-rule="evenodd"/><path fill="#ffffff" d="M 386.265625 357.472656 C 386.265625 357.671875 386.222656 357.867188 386.140625 358.050781 C 386.058594 358.238281 385.9375 358.402344 385.785156 358.546875 C 385.632812 358.6875 385.457031 358.796875 385.253906 358.875 C 385.054688 358.949219 384.847656 358.988281 384.628906 358.988281 C 384.414062 358.988281 384.203125 358.949219 384.003906 358.875 C 383.804688 358.796875 383.625 358.6875 383.472656 358.546875 C 383.320312 358.402344 383.203125 358.238281 383.117188 358.050781 C 383.035156 357.867188 382.996094 357.671875 382.996094 357.472656 C 382.996094 357.269531 383.035156 357.078125 383.117188 356.890625 C 383.203125 356.703125 383.320312 356.539062 383.472656 356.398438 C 383.625 356.253906 383.804688 356.144531 384.003906 356.070312 C 384.203125 355.992188 384.414062 355.953125 384.628906 355.953125 C 384.847656 355.953125 385.054688 355.992188 385.253906 356.070312 C 385.457031 356.144531 385.632812 356.253906 385.785156 356.398438 C 385.9375 356.539062 386.058594 356.703125 386.140625 356.890625 C 386.222656 357.078125 386.265625 357.269531 386.265625 357.472656 Z M 386.265625 357.472656 " fill-opacity="0.99" fill-rule="evenodd"/><path fill="#ffffff" d="M 386.738281 329.054688 C 386.738281 329.257812 386.695312 329.449219 386.613281 329.636719 C 386.53125 329.820312 386.414062 329.984375 386.257812 330.128906 C 386.105469 330.269531 385.929688 330.378906 385.730469 330.457031 C 385.527344 330.535156 385.320312 330.574219 385.101562 330.574219 C 384.886719 330.574219 384.679688 330.535156 384.476562 330.457031 C 384.277344 330.378906 384.101562 330.269531 383.949219 330.128906 C 383.792969 329.984375 383.675781 329.820312 383.59375 329.636719 C 383.511719 329.449219 383.46875 329.257812 383.46875 329.054688 C 383.46875 328.851562 383.511719 328.660156 383.59375 328.472656 C 383.675781 328.289062 383.792969 328.125 383.949219 327.980469 C 384.101562 327.839844 384.277344 327.730469 384.476562 327.652344 C 384.679688 327.574219 384.886719 327.535156 385.101562 327.535156 C 385.320312 327.535156 385.527344 327.574219 385.730469 327.652344 C 385.929688 327.730469 386.105469 327.839844 386.257812 327.980469 C 386.414062 328.125 386.53125 328.289062 386.613281 328.472656 C 386.695312 328.660156 386.738281 328.851562 386.738281 329.054688 Z M 386.738281 329.054688 " fill-opacity="0.99" fill-rule="evenodd"/><path fill="#ffffff" d="M 426.980469 560.394531 C 426.980469 560.761719 426.90625 561.113281 426.753906 561.453125 C 426.601562 561.792969 426.386719 562.089844 426.109375 562.351562 C 425.832031 562.609375 425.507812 562.808594 425.144531 562.949219 C 424.78125 563.089844 424.398438 563.160156 424.003906 563.160156 C 423.609375 563.160156 423.230469 563.089844 422.867188 562.949219 C 422.503906 562.808594 422.179688 562.609375 421.902344 562.351562 C 421.621094 562.089844 421.40625 561.792969 421.257812 561.453125 C 421.105469 561.113281 421.03125 560.761719 421.03125 560.394531 C 421.03125 560.03125 421.105469 559.675781 421.257812 559.339844 C 421.40625 559 421.621094 558.703125 421.902344 558.441406 C 422.179688 558.183594 422.503906 557.984375 422.867188 557.84375 C 423.230469 557.703125 423.609375 557.632812 424.003906 557.632812 C 424.398438 557.632812 424.78125 557.703125 425.144531 557.84375 C 425.507812 557.984375 425.832031 558.183594 426.109375 558.441406 C 426.386719 558.703125 426.601562 559 426.753906 559.339844 C 426.90625 559.675781 426.980469 560.03125 426.980469 560.394531 Z M 426.980469 560.394531 " fill-opacity="0.99" fill-rule="evenodd"/><path fill="#ffffff" d="M 406.128906 517.535156 C 406.128906 517.902344 406.054688 518.253906 405.902344 518.589844 C 405.75 518.929688 405.535156 519.230469 405.257812 519.488281 C 404.976562 519.746094 404.65625 519.945312 404.292969 520.085938 C 403.925781 520.226562 403.546875 520.296875 403.152344 520.296875 C 402.757812 520.296875 402.378906 520.226562 402.015625 520.085938 C 401.652344 519.945312 401.328125 519.746094 401.050781 519.488281 C 400.769531 519.230469 400.554688 518.929688 400.40625 518.589844 C 400.253906 518.253906 400.179688 517.902344 400.179688 517.535156 C 400.179688 517.167969 400.253906 516.816406 400.40625 516.476562 C 400.554688 516.136719 400.769531 515.839844 401.050781 515.582031 C 401.328125 515.320312 401.652344 515.121094 402.015625 514.980469 C 402.378906 514.839844 402.757812 514.773438 403.152344 514.769531 C 403.546875 514.769531 403.925781 514.839844 404.292969 514.980469 C 404.65625 515.121094 404.976562 515.320312 405.257812 515.582031 C 405.535156 515.839844 405.75 516.136719 405.902344 516.476562 C 406.054688 516.816406 406.128906 517.167969 406.128906 517.535156 Z M 406.128906 517.535156 " fill-opacity="0.99" fill-rule="evenodd"/><path fill="#ffffff" d="M 389.265625 449.191406 C 389.265625 449.394531 389.222656 449.585938 389.140625 449.773438 C 389.058594 449.960938 388.9375 450.125 388.785156 450.265625 C 388.632812 450.40625 388.457031 450.519531 388.253906 450.59375 C 388.054688 450.671875 387.847656 450.710938 387.628906 450.710938 C 387.414062 450.710938 387.203125 450.671875 387.003906 450.59375 C 386.804688 450.519531 386.628906 450.40625 386.472656 450.265625 C 386.320312 450.125 386.203125 449.960938 386.121094 449.773438 C 386.035156 449.585938 385.996094 449.394531 385.996094 449.191406 C 385.996094 448.992188 386.035156 448.796875 386.121094 448.609375 C 386.203125 448.425781 386.320312 448.261719 386.472656 448.117188 C 386.625 447.976562 386.804688 447.867188 387.003906 447.789062 C 387.203125 447.710938 387.414062 447.675781 387.628906 447.675781 C 387.847656 447.675781 388.054688 447.710938 388.253906 447.789062 C 388.457031 447.867188 388.632812 447.976562 388.785156 448.117188 C 388.9375 448.261719 389.058594 448.425781 389.140625 448.609375 C 389.222656 448.796875 389.265625 448.992188 389.265625 449.191406 Z M 389.265625 449.191406 " fill-opacity="0.99" fill-rule="evenodd"/><path fill="#ffffff" d="M 417.613281 437.511719 C 417.613281 437.777344 417.558594 438.03125 417.449219 438.273438 C 417.34375 438.519531 417.1875 438.734375 416.984375 438.921875 C 416.785156 439.105469 416.554688 439.25 416.289062 439.351562 C 416.027344 439.453125 415.753906 439.503906 415.46875 439.503906 C 415.183594 439.503906 414.910156 439.453125 414.648438 439.351562 C 414.386719 439.25 414.152344 439.105469 413.953125 438.921875 C 413.75 438.734375 413.597656 438.519531 413.488281 438.273438 C 413.378906 438.03125 413.324219 437.777344 413.324219 437.511719 C 413.324219 437.246094 413.378906 436.992188 413.488281 436.75 C 413.597656 436.507812 413.75 436.289062 413.953125 436.105469 C 414.152344 435.917969 414.386719 435.773438 414.648438 435.671875 C 414.910156 435.570312 415.183594 435.519531 415.46875 435.519531 C 415.753906 435.519531 416.027344 435.570312 416.289062 435.671875 C 416.554688 435.773438 416.785156 435.917969 416.984375 436.105469 C 417.1875 436.289062 417.34375 436.507812 417.449219 436.75 C 417.558594 436.992188 417.613281 437.246094 417.613281 437.511719 Z M 417.613281 437.511719 " fill-opacity="0.99" fill-rule="evenodd"/><path fill="#ffffff" d="M 391.074219 411.9375 C 391.074219 412.199219 391.019531 412.457031 390.914062 412.699219 C 390.804688 412.941406 390.648438 413.160156 390.449219 413.34375 C 390.246094 413.53125 390.015625 413.675781 389.75 413.777344 C 389.488281 413.878906 389.214844 413.929688 388.929688 413.929688 C 388.644531 413.929688 388.371094 413.878906 388.109375 413.777344 C 387.847656 413.675781 387.613281 413.53125 387.414062 413.34375 C 387.210938 413.160156 387.058594 412.941406 386.949219 412.699219 C 386.839844 412.457031 386.785156 412.199219 386.785156 411.9375 C 386.785156 411.671875 386.839844 411.417969 386.949219 411.175781 C 387.058594 410.929688 387.210938 410.714844 387.414062 410.527344 C 387.613281 410.34375 387.847656 410.199219 388.109375 410.097656 C 388.371094 409.996094 388.644531 409.945312 388.929688 409.945312 C 389.214844 409.945312 389.488281 409.996094 389.75 410.097656 C 390.015625 410.199219 390.246094 410.34375 390.449219 410.527344 C 390.648438 410.714844 390.804688 410.929688 390.914062 411.175781 C 391.019531 411.417969 391.074219 411.671875 391.074219 411.9375 Z M 391.074219 411.9375 " fill-opacity="0.99" fill-rule="evenodd"/><path fill="#ffffff" d="M 421.488281 482.820312 C 421.488281 483.019531 421.449219 483.214844 421.367188 483.398438 C 421.28125 483.585938 421.164062 483.75 421.011719 483.890625 C 420.859375 484.035156 420.679688 484.144531 420.480469 484.222656 C 420.28125 484.296875 420.070312 484.335938 419.855469 484.335938 C 419.636719 484.335938 419.429688 484.296875 419.230469 484.222656 C 419.027344 484.144531 418.851562 484.035156 418.699219 483.890625 C 418.546875 483.75 418.429688 483.585938 418.34375 483.398438 C 418.261719 483.214844 418.21875 483.019531 418.21875 482.820312 C 418.21875 482.617188 418.261719 482.425781 418.34375 482.238281 C 418.429688 482.050781 418.546875 481.886719 418.699219 481.746094 C 418.851562 481.601562 419.03125 481.492188 419.230469 481.417969 C 419.429688 481.339844 419.636719 481.300781 419.855469 481.300781 C 420.070312 481.300781 420.28125 481.339844 420.480469 481.417969 C 420.679688 481.492188 420.859375 481.601562 421.011719 481.746094 C 421.164062 481.886719 421.28125 482.050781 421.367188 482.238281 C 421.449219 482.425781 421.488281 482.617188 421.488281 482.820312 Z M 421.488281 482.820312 " fill-opacity="0.99" fill-rule="evenodd"/><path fill="#ffffff" d="M 403.730469 441.625 C 403.730469 441.828125 403.6875 442.023438 403.605469 442.207031 C 403.523438 442.394531 403.402344 442.558594 403.25 442.699219 C 403.097656 442.84375 402.921875 442.953125 402.71875 443.03125 C 402.519531 443.105469 402.3125 443.144531 402.09375 443.144531 C 401.878906 443.144531 401.667969 443.105469 401.46875 443.03125 C 401.269531 442.953125 401.09375 442.84375 400.9375 442.699219 C 400.785156 442.558594 400.667969 442.394531 400.585938 442.207031 C 400.5 442.023438 400.460938 441.828125 400.460938 441.625 C 400.460938 441.425781 400.5 441.230469 400.585938 441.046875 C 400.667969 440.859375 400.785156 440.695312 400.9375 440.554688 C 401.09375 440.410156 401.269531 440.300781 401.46875 440.222656 C 401.667969 440.148438 401.878906 440.109375 402.09375 440.109375 C 402.3125 440.109375 402.519531 440.148438 402.71875 440.222656 C 402.921875 440.300781 403.097656 440.410156 403.25 440.554688 C 403.402344 440.695312 403.523438 440.859375 403.605469 441.046875 C 403.6875 441.230469 403.730469 441.425781 403.730469 441.625 Z M 403.730469 441.625 " fill-opacity="0.99" fill-rule="evenodd"/><path fill="#ffffff" d="M 402.390625 467.414062 C 402.390625 467.613281 402.347656 467.808594 402.265625 467.996094 C 402.183594 468.179688 402.0625 468.34375 401.910156 468.488281 C 401.757812 468.628906 401.582031 468.738281 401.378906 468.816406 C 401.179688 468.894531 400.972656 468.933594 400.753906 468.933594 C 400.539062 468.933594 400.328125 468.894531 400.128906 468.816406 C 399.929688 468.738281 399.75 468.628906 399.597656 468.488281 C 399.445312 468.34375 399.328125 468.179688 399.242188 467.996094 C 399.160156 467.808594 399.121094 467.613281 399.121094 467.414062 C 399.121094 467.210938 399.160156 467.019531 399.242188 466.832031 C 399.328125 466.648438 399.445312 466.484375 399.597656 466.339844 C 399.75 466.199219 399.929688 466.089844 400.128906 466.011719 C 400.328125 465.933594 400.539062 465.894531 400.753906 465.894531 C 400.972656 465.894531 401.179688 465.933594 401.378906 466.011719 C 401.582031 466.089844 401.757812 466.199219 401.910156 466.339844 C 402.0625 466.484375 402.183594 466.648438 402.265625 466.832031 C 402.347656 467.019531 402.390625 467.210938 402.390625 467.414062 Z M 402.390625 467.414062 " fill-opacity="0.99" fill-rule="evenodd"/><path fill="#ffffff" d="M 410.054688 424.34375 C 410.054688 424.546875 409.980469 424.722656 409.824219 424.867188 C 409.667969 425.011719 409.480469 425.082031 409.257812 425.082031 C 409.039062 425.082031 408.851562 425.011719 408.695312 424.867188 C 408.539062 424.722656 408.460938 424.546875 408.460938 424.34375 C 408.460938 424.136719 408.539062 423.964844 408.695312 423.820312 C 408.851562 423.675781 409.039062 423.601562 409.257812 423.601562 C 409.480469 423.601562 409.667969 423.675781 409.824219 423.820312 C 409.976562 423.964844 410.054688 424.136719 410.054688 424.34375 Z M 410.054688 424.34375 " fill-opacity="0.99" fill-rule="evenodd"/><path fill="#ffffff" d="M 424.800781 411.949219 C 424.800781 412.15625 424.722656 412.328125 424.566406 412.472656 C 424.410156 412.617188 424.222656 412.691406 424.003906 412.691406 C 423.785156 412.691406 423.59375 412.617188 423.441406 412.472656 C 423.285156 412.328125 423.207031 412.15625 423.207031 411.949219 C 423.207031 411.746094 423.285156 411.574219 423.441406 411.429688 C 423.59375 411.285156 423.785156 411.210938 424.003906 411.210938 C 424.222656 411.210938 424.410156 411.285156 424.566406 411.429688 C 424.722656 411.574219 424.800781 411.746094 424.800781 411.949219 Z M 424.800781 411.949219 " fill-opacity="0.99" fill-rule="evenodd"/><path fill="#ffffff" d="M 409.386719 360.710938 C 409.386719 360.917969 409.308594 361.089844 409.152344 361.234375 C 408.996094 361.378906 408.808594 361.453125 408.589844 361.453125 C 408.367188 361.453125 408.179688 361.378906 408.023438 361.234375 C 407.871094 361.089844 407.792969 360.917969 407.792969 360.710938 C 407.792969 360.507812 407.871094 360.332031 408.023438 360.1875 C 408.179688 360.042969 408.367188 359.972656 408.589844 359.972656 C 408.808594 359.972656 408.996094 360.042969 409.152344 360.1875 C 409.308594 360.332031 409.386719 360.507812 409.386719 360.710938 Z M 409.386719 360.710938 " fill-opacity="0.99" fill-rule="evenodd"/><path fill="#ffffff" d="M 405.363281 298.085938 C 405.363281 298.292969 405.289062 298.464844 405.132812 298.609375 C 404.976562 298.753906 404.789062 298.828125 404.566406 298.828125 C 404.347656 298.828125 404.160156 298.753906 404.003906 298.609375 C 403.847656 298.464844 403.769531 298.292969 403.769531 298.085938 C 403.769531 297.882812 403.847656 297.707031 404.003906 297.5625 C 404.160156 297.417969 404.347656 297.347656 404.566406 297.347656 C 404.789062 297.347656 404.976562 297.417969 405.132812 297.5625 C 405.289062 297.707031 405.363281 297.882812 405.363281 298.085938 Z M 405.363281 298.085938 " fill-opacity="0.99" fill-rule="evenodd"/><path fill="#ffffff" d="M 390.121094 519 C 390.121094 519.367188 390.046875 519.71875 389.894531 520.058594 C 389.742188 520.394531 389.527344 520.695312 389.25 520.953125 C 388.972656 521.214844 388.648438 521.414062 388.285156 521.554688 C 387.921875 521.691406 387.539062 521.761719 387.144531 521.761719 C 386.75 521.761719 386.371094 521.691406 386.007812 521.554688 C 385.644531 521.414062 385.320312 521.214844 385.042969 520.953125 C 384.761719 520.695312 384.546875 520.394531 384.398438 520.058594 C 384.246094 519.71875 384.171875 519.367188 384.171875 519 C 384.171875 518.632812 384.246094 518.28125 384.398438 517.941406 C 384.546875 517.605469 384.761719 517.304688 385.042969 517.046875 C 385.320312 516.789062 385.644531 516.589844 386.007812 516.449219 C 386.371094 516.308594 386.75 516.238281 387.144531 516.238281 C 387.539062 516.238281 387.921875 516.308594 388.285156 516.449219 C 388.648438 516.589844 388.972656 516.789062 389.25 517.046875 C 389.527344 517.304688 389.742188 517.605469 389.894531 517.941406 C 390.046875 518.28125 390.121094 518.632812 390.121094 519 Z M 390.121094 519 " fill-opacity="0.99" fill-rule="evenodd"/><path fill="#ffffff" d="M 407.082031 488.511719 C 407.082031 488.714844 407.039062 488.90625 406.957031 489.09375 C 406.875 489.277344 406.753906 489.441406 406.601562 489.585938 C 406.449219 489.726562 406.273438 489.835938 406.070312 489.914062 C 405.871094 489.992188 405.664062 490.03125 405.445312 490.03125 C 405.230469 490.03125 405.019531 489.992188 404.820312 489.914062 C 404.621094 489.835938 404.441406 489.726562 404.289062 489.585938 C 404.136719 489.441406 404.019531 489.277344 403.933594 489.09375 C 403.851562 488.90625 403.8125 488.714844 403.8125 488.511719 C 403.8125 488.3125 403.851562 488.117188 403.933594 487.929688 C 404.019531 487.746094 404.136719 487.582031 404.289062 487.4375 C 404.441406 487.296875 404.621094 487.1875 404.820312 487.109375 C 405.019531 487.03125 405.230469 486.992188 405.445312 486.992188 C 405.664062 486.992188 405.871094 487.03125 406.070312 487.109375 C 406.273438 487.1875 406.449219 487.296875 406.601562 487.4375 C 406.753906 487.582031 406.875 487.746094 406.957031 487.929688 C 407.039062 488.117188 407.082031 488.3125 407.082031 488.511719 Z M 407.082031 488.511719 " fill-opacity="0.99" fill-rule="evenodd"/><path fill="#ffffff" d="M 387.644531 503.582031 C 387.644531 503.785156 387.601562 503.976562 387.519531 504.164062 C 387.4375 504.347656 387.320312 504.511719 387.167969 504.65625 C 387.011719 504.796875 386.835938 504.90625 386.636719 504.984375 C 386.433594 505.0625 386.226562 505.101562 386.011719 505.101562 C 385.792969 505.101562 385.585938 505.0625 385.382812 504.984375 C 385.183594 504.90625 385.007812 504.796875 384.855469 504.65625 C 384.699219 504.511719 384.582031 504.347656 384.5 504.164062 C 384.417969 503.976562 384.375 503.785156 384.375 503.582031 C 384.375 503.382812 384.417969 503.1875 384.5 503 C 384.582031 502.816406 384.699219 502.652344 384.855469 502.507812 C 385.007812 502.367188 385.183594 502.257812 385.382812 502.179688 C 385.585938 502.101562 385.792969 502.0625 386.011719 502.0625 C 386.226562 502.0625 386.433594 502.101562 386.636719 502.179688 C 386.835938 502.257812 387.011719 502.367188 387.164062 502.507812 C 387.320312 502.652344 387.4375 502.816406 387.519531 503 C 387.601562 503.1875 387.644531 503.382812 387.644531 503.582031 Z M 387.644531 503.582031 " fill-opacity="0.99" fill-rule="evenodd"/><path fill="#ffffff" d="M 392.296875 491.65625 C 392.296875 491.859375 392.21875 492.035156 392.0625 492.179688 C 391.90625 492.324219 391.71875 492.394531 391.5 492.394531 C 391.277344 492.394531 391.089844 492.324219 390.933594 492.179688 C 390.78125 492.035156 390.703125 491.859375 390.703125 491.65625 C 390.703125 491.453125 390.78125 491.277344 390.933594 491.132812 C 391.089844 490.988281 391.277344 490.917969 391.5 490.917969 C 391.71875 490.917969 391.90625 490.988281 392.0625 491.132812 C 392.21875 491.277344 392.296875 491.453125 392.296875 491.65625 Z M 392.296875 491.65625 " fill-opacity="0.99" fill-rule="evenodd"/><path fill="#ffffff" d="M 422.457031 497.683594 C 422.457031 497.890625 422.378906 498.0625 422.222656 498.207031 C 422.066406 498.351562 421.878906 498.425781 421.65625 498.425781 C 421.4375 498.425781 421.25 498.351562 421.09375 498.207031 C 420.9375 498.0625 420.859375 497.890625 420.859375 497.683594 C 420.859375 497.480469 420.9375 497.304688 421.09375 497.160156 C 421.25 497.015625 421.4375 496.945312 421.65625 496.945312 C 421.878906 496.945312 422.066406 497.015625 422.222656 497.160156 C 422.378906 497.304688 422.457031 497.480469 422.457031 497.683594 Z M 422.457031 497.683594 " fill-opacity="0.99" fill-rule="evenodd"/><path fill="#ffffff" d="M 422.789062 526.152344 C 422.789062 526.355469 422.710938 526.527344 422.558594 526.671875 C 422.402344 526.816406 422.214844 526.890625 421.992188 526.890625 C 421.773438 526.890625 421.585938 526.816406 421.429688 526.671875 C 421.273438 526.527344 421.195312 526.355469 421.195312 526.152344 C 421.195312 525.945312 421.273438 525.773438 421.429688 525.628906 C 421.585938 525.484375 421.773438 525.410156 421.992188 525.410156 C 422.214844 525.410156 422.402344 525.484375 422.558594 525.628906 C 422.710938 525.773438 422.789062 525.945312 422.789062 526.152344 Z M 422.789062 526.152344 " fill-opacity="0.99" fill-rule="evenodd"/><path fill="#ffffff" d="M 406.707031 502.371094 C 406.707031 502.578125 406.628906 502.75 406.472656 502.894531 C 406.316406 503.039062 406.128906 503.113281 405.90625 503.113281 C 405.6875 503.113281 405.5 503.039062 405.34375 502.894531 C 405.1875 502.75 405.109375 502.578125 405.109375 502.371094 C 405.109375 502.167969 405.1875 501.992188 405.34375 501.847656 C 405.5 501.707031 405.6875 501.632812 405.90625 501.632812 C 406.128906 501.632812 406.316406 501.707031 406.472656 501.851562 C 406.628906 501.992188 406.707031 502.167969 406.707031 502.371094 Z M 406.707031 502.371094 " fill-opacity="0.99" fill-rule="evenodd"/><path fill="#ffffff" d="M 409.761719 531.378906 C 409.761719 531.578125 409.71875 531.773438 409.636719 531.960938 C 409.554688 532.144531 409.4375 532.308594 409.28125 532.453125 C 409.128906 532.59375 408.953125 532.703125 408.753906 532.78125 C 408.550781 532.859375 408.34375 532.898438 408.125 532.898438 C 407.910156 532.898438 407.703125 532.859375 407.5 532.78125 C 407.300781 532.703125 407.125 532.59375 406.96875 532.453125 C 406.816406 532.308594 406.699219 532.144531 406.617188 531.960938 C 406.535156 531.773438 406.492188 531.578125 406.492188 531.378906 C 406.492188 531.175781 406.535156 530.984375 406.617188 530.796875 C 406.699219 530.613281 406.816406 530.449219 406.96875 530.304688 C 407.125 530.164062 407.300781 530.054688 407.5 529.976562 C 407.703125 529.898438 407.910156 529.859375 408.125 529.859375 C 408.34375 529.859375 408.550781 529.898438 408.753906 529.976562 C 408.953125 530.054688 409.128906 530.164062 409.28125 530.304688 C 409.4375 530.449219 409.554688 530.613281 409.636719 530.796875 C 409.71875 530.984375 409.761719 531.175781 409.761719 531.378906 Z M 409.761719 531.378906 " fill-opacity="0.99" fill-rule="evenodd"/><path fill="#ffffff" d="M 424.714844 464.71875 C 424.714844 464.925781 424.636719 465.097656 424.480469 465.242188 C 424.324219 465.386719 424.136719 465.460938 423.917969 465.460938 C 423.695312 465.460938 423.507812 465.386719 423.351562 465.242188 C 423.195312 465.097656 423.121094 464.925781 423.121094 464.71875 C 423.121094 464.515625 423.195312 464.34375 423.351562 464.199219 C 423.507812 464.054688 423.695312 463.980469 423.917969 463.980469 C 424.136719 463.980469 424.324219 464.054688 424.480469 464.199219 C 424.636719 464.34375 424.714844 464.515625 424.714844 464.71875 Z M 424.714844 464.71875 " fill-opacity="0.99" fill-rule="evenodd"/><path fill="#ffffff" d="M 424.984375 429.550781 C 424.984375 429.757812 424.90625 429.929688 424.75 430.074219 C 424.59375 430.21875 424.40625 430.292969 424.1875 430.292969 C 423.96875 430.292969 423.777344 430.21875 423.625 430.074219 C 423.46875 429.929688 423.390625 429.757812 423.390625 429.550781 C 423.390625 429.347656 423.46875 429.171875 423.625 429.027344 C 423.777344 428.882812 423.96875 428.8125 424.1875 428.8125 C 424.40625 428.8125 424.59375 428.882812 424.75 429.027344 C 424.90625 429.171875 424.984375 429.347656 424.984375 429.550781 Z M 424.984375 429.550781 " fill-opacity="0.99" fill-rule="evenodd"/><path fill="#ffffff" d="M 384.03125 387.707031 C 384.03125 387.914062 383.953125 388.085938 383.796875 388.230469 C 383.644531 388.375 383.457031 388.449219 383.234375 388.449219 C 383.015625 388.449219 382.828125 388.375 382.671875 388.230469 C 382.515625 388.085938 382.4375 387.914062 382.4375 387.707031 C 382.4375 387.503906 382.515625 387.328125 382.671875 387.183594 C 382.828125 387.039062 383.015625 386.96875 383.234375 386.96875 C 383.457031 386.96875 383.644531 387.039062 383.796875 387.183594 C 383.953125 387.328125 384.03125 387.503906 384.03125 387.707031 Z M 384.03125 387.707031 " fill-opacity="0.99" fill-rule="evenodd"/><path fill="#ffffff" d="M 387.648438 584.550781 C 387.644531 584.917969 387.570312 585.269531 387.421875 585.609375 C 387.269531 585.945312 387.054688 586.246094 386.773438 586.503906 C 386.496094 586.761719 386.175781 586.964844 385.808594 587.101562 C 385.445312 587.242188 385.066406 587.3125 384.671875 587.3125 C 384.277344 587.3125 383.898438 587.242188 383.53125 587.101562 C 383.167969 586.964844 382.847656 586.761719 382.566406 586.503906 C 382.289062 586.246094 382.074219 585.945312 381.921875 585.609375 C 381.769531 585.269531 381.695312 584.917969 381.695312 584.550781 C 381.695312 584.183594 381.769531 583.832031 381.921875 583.492188 C 382.074219 583.15625 382.289062 582.855469 382.566406 582.597656 C 382.847656 582.339844 383.167969 582.136719 383.53125 582 C 383.898438 581.859375 384.277344 581.789062 384.671875 581.789062 C 385.066406 581.789062 385.445312 581.859375 385.808594 581.996094 C 386.175781 582.136719 386.496094 582.335938 386.773438 582.597656 C 387.054688 582.855469 387.269531 583.15625 387.421875 583.492188 C 387.570312 583.832031 387.644531 584.183594 387.648438 584.550781 Z M 387.648438 584.550781 " fill-opacity="0.99" fill-rule="evenodd"/><path fill="#ffffff" d="M 385.117188 530.90625 C 385.117188 531.105469 385.078125 531.300781 384.992188 531.484375 C 384.910156 531.671875 384.792969 531.835938 384.640625 531.980469 C 384.484375 532.121094 384.308594 532.230469 384.109375 532.308594 C 383.910156 532.382812 383.699219 532.421875 383.484375 532.421875 C 383.265625 532.421875 383.058594 532.382812 382.859375 532.308594 C 382.65625 532.230469 382.480469 532.121094 382.328125 531.980469 C 382.175781 531.835938 382.054688 531.671875 381.972656 531.484375 C 381.890625 531.300781 381.847656 531.105469 381.847656 530.90625 C 381.847656 530.703125 381.890625 530.511719 381.972656 530.324219 C 382.054688 530.136719 382.175781 529.972656 382.328125 529.832031 C 382.480469 529.6875 382.65625 529.578125 382.859375 529.503906 C 383.058594 529.425781 383.265625 529.386719 383.484375 529.386719 C 383.699219 529.386719 383.910156 529.425781 384.109375 529.503906 C 384.308594 529.578125 384.484375 529.6875 384.640625 529.832031 C 384.792969 529.972656 384.910156 530.136719 384.992188 530.324219 C 385.078125 530.511719 385.117188 530.703125 385.117188 530.90625 Z M 385.117188 530.90625 " fill-opacity="0.99" fill-rule="evenodd"/><path fill="#ffffff" d="M 401.863281 548.082031 C 401.863281 548.449219 401.789062 548.800781 401.636719 549.140625 C 401.484375 549.476562 401.269531 549.777344 400.992188 550.035156 C 400.714844 550.296875 400.390625 550.496094 400.027344 550.636719 C 399.664062 550.773438 399.28125 550.84375 398.886719 550.84375 C 398.492188 550.84375 398.113281 550.773438 397.75 550.636719 C 397.386719 550.496094 397.0625 550.296875 396.785156 550.035156 C 396.503906 549.777344 396.289062 549.476562 396.140625 549.140625 C 395.988281 548.800781 395.914062 548.449219 395.914062 548.082031 C 395.914062 547.714844 395.988281 547.363281 396.140625 547.023438 C 396.289062 546.6875 396.503906 546.386719 396.785156 546.128906 C 397.0625 545.871094 397.386719 545.671875 397.75 545.53125 C 398.113281 545.390625 398.492188 545.320312 398.886719 545.320312 C 399.28125 545.320312 399.664062 545.390625 400.027344 545.53125 C 400.390625 545.671875 400.714844 545.871094 400.992188 546.128906 C 401.269531 546.386719 401.484375 546.6875 401.636719 547.023438 C 401.789062 547.363281 401.863281 547.714844 401.863281 548.082031 Z M 401.863281 548.082031 " fill-opacity="0.99" fill-rule="evenodd"/><path fill="#ffffff" d="M 410.867188 576.734375 C 410.867188 577.101562 410.792969 577.453125 410.640625 577.792969 C 410.492188 578.132812 410.277344 578.429688 409.996094 578.691406 C 409.71875 578.949219 409.394531 579.148438 409.03125 579.289062 C 408.667969 579.429688 408.289062 579.5 407.894531 579.5 C 407.5 579.5 407.117188 579.429688 406.753906 579.289062 C 406.390625 579.148438 406.066406 578.949219 405.789062 578.691406 C 405.511719 578.429688 405.292969 578.132812 405.144531 577.792969 C 404.992188 577.453125 404.917969 577.101562 404.917969 576.734375 C 404.917969 576.371094 404.992188 576.015625 405.144531 575.679688 C 405.292969 575.339844 405.511719 575.042969 405.789062 574.78125 C 406.066406 574.523438 406.390625 574.324219 406.753906 574.183594 C 407.117188 574.042969 407.5 573.972656 407.894531 573.972656 C 408.289062 573.972656 408.667969 574.042969 409.03125 574.183594 C 409.394531 574.324219 409.71875 574.523438 409.996094 574.78125 C 410.277344 575.042969 410.492188 575.339844 410.640625 575.679688 C 410.792969 576.015625 410.867188 576.371094 410.867188 576.734375 Z M 410.867188 576.734375 " fill-opacity="0.99" fill-rule="evenodd"/><path fill="#ffffff" d="M 392.699219 537.753906 C 392.699219 537.957031 392.621094 538.132812 392.464844 538.277344 C 392.308594 538.421875 392.121094 538.492188 391.898438 538.492188 C 391.679688 538.492188 391.492188 538.421875 391.335938 538.277344 C 391.179688 538.132812 391.101562 537.957031 391.101562 537.753906 C 391.101562 537.550781 391.179688 537.375 391.335938 537.230469 C 391.492188 537.085938 391.679688 537.015625 391.898438 537.015625 C 392.121094 537.015625 392.308594 537.085938 392.464844 537.230469 C 392.621094 537.375 392.699219 537.550781 392.699219 537.753906 Z M 392.699219 537.753906 " fill-opacity="0.99" fill-rule="evenodd"/><path fill="#ffffff" d="M 426.582031 547.226562 C 426.582031 547.429688 426.503906 547.605469 426.347656 547.75 C 426.191406 547.894531 426.003906 547.964844 425.785156 547.964844 C 425.5625 547.964844 425.375 547.894531 425.21875 547.75 C 425.066406 547.605469 424.988281 547.429688 424.988281 547.226562 C 424.988281 547.023438 425.066406 546.847656 425.21875 546.703125 C 425.375 546.558594 425.5625 546.484375 425.785156 546.488281 C 426.003906 546.484375 426.191406 546.558594 426.347656 546.703125 C 426.503906 546.847656 426.582031 547.023438 426.582031 547.226562 Z M 426.582031 547.226562 " fill-opacity="0.99" fill-rule="evenodd"/><path fill="#ffffff" d="M 414.738281 546.296875 C 414.738281 546.5 414.695312 546.691406 414.613281 546.878906 C 414.53125 547.066406 414.410156 547.230469 414.257812 547.371094 C 414.105469 547.511719 413.929688 547.625 413.726562 547.699219 C 413.527344 547.777344 413.320312 547.816406 413.101562 547.816406 C 412.886719 547.816406 412.675781 547.777344 412.476562 547.699219 C 412.277344 547.625 412.101562 547.511719 411.945312 547.371094 C 411.792969 547.230469 411.675781 547.066406 411.59375 546.878906 C 411.507812 546.691406 411.46875 546.5 411.46875 546.296875 C 411.46875 546.097656 411.507812 545.902344 411.59375 545.714844 C 411.675781 545.53125 411.792969 545.367188 411.945312 545.222656 C 412.101562 545.082031 412.277344 544.972656 412.476562 544.894531 C 412.675781 544.816406 412.886719 544.78125 413.101562 544.78125 C 413.320312 544.78125 413.527344 544.816406 413.726562 544.894531 C 413.929688 544.972656 414.105469 545.082031 414.257812 545.222656 C 414.410156 545.367188 414.53125 545.53125 414.613281 545.714844 C 414.695312 545.902344 414.738281 546.097656 414.738281 546.296875 Z M 414.738281 546.296875 " fill-opacity="0.99" fill-rule="evenodd"/><path fill="#ffffff" d="M 386.539062 557.902344 C 386.539062 558.101562 386.5 558.296875 386.414062 558.480469 C 386.332031 558.667969 386.214844 558.832031 386.0625 558.972656 C 385.90625 559.117188 385.730469 559.226562 385.53125 559.304688 C 385.332031 559.378906 385.121094 559.417969 384.90625 559.417969 C 384.6875 559.417969 384.480469 559.378906 384.28125 559.304688 C 384.078125 559.226562 383.902344 559.117188 383.75 558.972656 C 383.597656 558.832031 383.476562 558.667969 383.394531 558.480469 C 383.3125 558.296875 383.269531 558.101562 383.269531 557.902344 C 383.269531 557.699219 383.3125 557.507812 383.394531 557.320312 C 383.476562 557.132812 383.597656 556.96875 383.75 556.828125 C 383.902344 556.683594 384.078125 556.574219 384.28125 556.5 C 384.480469 556.421875 384.6875 556.382812 384.90625 556.382812 C 385.121094 556.382812 385.332031 556.421875 385.53125 556.5 C 385.730469 556.574219 385.90625 556.683594 386.0625 556.828125 C 386.214844 556.96875 386.332031 557.132812 386.414062 557.320312 C 386.5 557.507812 386.539062 557.699219 386.539062 557.902344 Z M 386.539062 557.902344 " fill-opacity="0.99" fill-rule="evenodd"/><path fill="#ffffff" d="M 421.605469 569.722656 C 421.605469 569.925781 421.527344 570.101562 421.371094 570.246094 C 421.214844 570.390625 421.027344 570.460938 420.808594 570.460938 C 420.589844 570.460938 420.398438 570.390625 420.246094 570.246094 C 420.089844 570.101562 420.011719 569.925781 420.011719 569.722656 C 420.011719 569.519531 420.089844 569.34375 420.246094 569.199219 C 420.398438 569.054688 420.589844 568.984375 420.808594 568.984375 C 421.027344 568.984375 421.214844 569.054688 421.371094 569.199219 C 421.527344 569.34375 421.605469 569.519531 421.605469 569.722656 Z M 421.605469 569.722656 " fill-opacity="0.99" fill-rule="evenodd"/><path fill="#ffffff" d="M 401.226562 564.277344 C 401.226562 564.480469 401.148438 564.65625 400.992188 564.800781 C 400.839844 564.945312 400.652344 565.015625 400.429688 565.015625 C 400.210938 565.015625 400.023438 564.945312 399.867188 564.800781 C 399.710938 564.65625 399.632812 564.480469 399.632812 564.277344 C 399.632812 564.070312 399.710938 563.898438 399.867188 563.753906 C 400.023438 563.609375 400.210938 563.535156 400.429688 563.535156 C 400.652344 563.535156 400.839844 563.609375 400.992188 563.753906 C 401.148438 563.898438 401.226562 564.070312 401.226562 564.277344 Z M 401.226562 564.277344 " fill-opacity="0.99" fill-rule="evenodd"/><path fill="#ffffff" d="M 386.773438 573.984375 C 386.773438 574.191406 386.695312 574.363281 386.539062 574.507812 C 386.382812 574.652344 386.195312 574.726562 385.976562 574.726562 C 385.757812 574.726562 385.566406 574.652344 385.414062 574.507812 C 385.257812 574.363281 385.179688 574.191406 385.179688 573.984375 C 385.179688 573.78125 385.257812 573.605469 385.414062 573.460938 C 385.566406 573.316406 385.757812 573.246094 385.976562 573.246094 C 386.195312 573.246094 386.382812 573.316406 386.539062 573.460938 C 386.695312 573.605469 386.773438 573.78125 386.773438 573.984375 Z M 386.773438 573.984375 " fill-opacity="0.99" fill-rule="evenodd"/><path fill="#ffffff" d="M 425.085938 624.570312 C 425.085938 624.9375 425.007812 625.289062 424.859375 625.628906 C 424.707031 625.964844 424.492188 626.265625 424.214844 626.523438 C 423.933594 626.785156 423.613281 626.984375 423.25 627.125 C 422.882812 627.265625 422.503906 627.332031 422.109375 627.332031 C 421.714844 627.332031 421.335938 627.265625 420.972656 627.125 C 420.605469 626.984375 420.285156 626.785156 420.007812 626.523438 C 419.726562 626.265625 419.511719 625.96875 419.359375 625.628906 C 419.210938 625.289062 419.132812 624.9375 419.132812 624.570312 C 419.132812 624.203125 419.210938 623.851562 419.359375 623.511719 C 419.511719 623.175781 419.726562 622.875 420.007812 622.617188 C 420.285156 622.359375 420.605469 622.160156 420.972656 622.019531 C 421.335938 621.878906 421.714844 621.808594 422.109375 621.808594 C 422.503906 621.808594 422.882812 621.878906 423.25 622.019531 C 423.613281 622.160156 423.933594 622.359375 424.214844 622.617188 C 424.492188 622.875 424.707031 623.175781 424.859375 623.511719 C 425.007812 623.851562 425.085938 624.203125 425.085938 624.570312 Z M 425.085938 624.570312 " fill-opacity="0.99" fill-rule="evenodd"/><path fill="#ffffff" d="M 389.066406 643.988281 C 389.066406 644.355469 388.992188 644.707031 388.839844 645.046875 C 388.691406 645.386719 388.476562 645.683594 388.195312 645.941406 C 387.917969 646.203125 387.597656 646.402344 387.230469 646.542969 C 386.867188 646.683594 386.488281 646.75 386.09375 646.75 C 385.699219 646.75 385.320312 646.683594 384.953125 646.542969 C 384.589844 646.402344 384.269531 646.203125 383.988281 645.941406 C 383.710938 645.683594 383.496094 645.386719 383.34375 645.046875 C 383.191406 644.707031 383.117188 644.355469 383.117188 643.988281 C 383.117188 643.621094 383.191406 643.269531 383.34375 642.933594 C 383.496094 642.59375 383.710938 642.292969 383.988281 642.035156 C 384.269531 641.777344 384.589844 641.578125 384.953125 641.4375 C 385.320312 641.296875 385.699219 641.226562 386.09375 641.226562 C 386.488281 641.226562 386.867188 641.296875 387.230469 641.4375 C 387.597656 641.578125 387.917969 641.777344 388.195312 642.035156 C 388.476562 642.292969 388.691406 642.59375 388.839844 642.933594 C 388.992188 643.269531 389.066406 643.621094 389.066406 643.988281 Z M 389.066406 643.988281 " fill-opacity="0.99" fill-rule="evenodd"/><path fill="#ffffff" d="M 397.675781 603.132812 C 397.675781 603.332031 397.636719 603.527344 397.550781 603.710938 C 397.46875 603.898438 397.351562 604.0625 397.199219 604.203125 C 397.042969 604.347656 396.867188 604.457031 396.667969 604.535156 C 396.46875 604.609375 396.257812 604.648438 396.042969 604.648438 C 395.824219 604.648438 395.617188 604.609375 395.417969 604.535156 C 395.214844 604.457031 395.039062 604.347656 394.886719 604.203125 C 394.734375 604.0625 394.613281 603.898438 394.53125 603.710938 C 394.449219 603.527344 394.40625 603.332031 394.40625 603.132812 C 394.40625 602.929688 394.449219 602.734375 394.53125 602.550781 C 394.613281 602.363281 394.734375 602.199219 394.886719 602.058594 C 395.039062 601.914062 395.214844 601.804688 395.417969 601.726562 C 395.617188 601.652344 395.824219 601.613281 396.042969 601.613281 C 396.257812 601.613281 396.46875 601.652344 396.667969 601.726562 C 396.867188 601.804688 397.042969 601.914062 397.199219 602.058594 C 397.351562 602.199219 397.46875 602.363281 397.550781 602.550781 C 397.636719 602.734375 397.675781 602.929688 397.675781 603.132812 Z M 397.675781 603.132812 " fill-opacity="0.99" fill-rule="evenodd"/><path fill="#ffffff" d="M 420.359375 588.90625 C 420.359375 589.105469 420.320312 589.300781 420.234375 589.488281 C 420.152344 589.671875 420.035156 589.835938 419.882812 589.980469 C 419.726562 590.121094 419.550781 590.230469 419.351562 590.308594 C 419.152344 590.386719 418.941406 590.425781 418.726562 590.425781 C 418.507812 590.425781 418.300781 590.386719 418.097656 590.308594 C 417.898438 590.230469 417.722656 590.121094 417.570312 589.980469 C 417.414062 589.835938 417.296875 589.671875 417.214844 589.488281 C 417.132812 589.300781 417.089844 589.105469 417.089844 588.90625 C 417.089844 588.703125 417.132812 588.511719 417.214844 588.324219 C 417.296875 588.140625 417.414062 587.976562 417.570312 587.832031 C 417.722656 587.691406 417.898438 587.582031 418.097656 587.503906 C 418.300781 587.425781 418.507812 587.386719 418.726562 587.386719 C 418.941406 587.386719 419.152344 587.425781 419.351562 587.503906 C 419.550781 587.582031 419.726562 587.691406 419.882812 587.832031 C 420.035156 587.976562 420.152344 588.140625 420.234375 588.324219 C 420.320312 588.511719 420.359375 588.703125 420.359375 588.90625 Z M 420.359375 588.90625 " fill-opacity="0.99" fill-rule="evenodd"/><path fill="#ffffff" d="M 401.59375 588.90625 C 401.59375 589.105469 401.550781 589.300781 401.46875 589.488281 C 401.386719 589.671875 401.269531 589.835938 401.117188 589.980469 C 400.960938 590.121094 400.785156 590.230469 400.585938 590.308594 C 400.382812 590.386719 400.175781 590.425781 399.960938 590.425781 C 399.742188 590.425781 399.535156 590.386719 399.332031 590.308594 C 399.132812 590.230469 398.957031 590.121094 398.804688 589.980469 C 398.648438 589.835938 398.53125 589.671875 398.449219 589.488281 C 398.367188 589.300781 398.324219 589.105469 398.324219 588.90625 C 398.324219 588.703125 398.367188 588.511719 398.449219 588.324219 C 398.53125 588.140625 398.648438 587.976562 398.804688 587.832031 C 398.957031 587.691406 399.132812 587.582031 399.332031 587.503906 C 399.535156 587.425781 399.742188 587.386719 399.960938 587.386719 C 400.175781 587.386719 400.382812 587.425781 400.585938 587.503906 C 400.785156 587.582031 400.960938 587.691406 401.117188 587.832031 C 401.269531 587.976562 401.386719 588.140625 401.46875 588.324219 C 401.550781 588.511719 401.59375 588.703125 401.59375 588.90625 Z M 401.59375 588.90625 " fill-opacity="0.99" fill-rule="evenodd"/><path fill="#ffffff" d="M 386.515625 622.394531 C 386.515625 622.597656 386.472656 622.789062 386.390625 622.976562 C 386.308594 623.164062 386.1875 623.328125 386.035156 623.46875 C 385.882812 623.609375 385.707031 623.722656 385.503906 623.796875 C 385.304688 623.875 385.097656 623.914062 384.878906 623.914062 C 384.664062 623.914062 384.453125 623.875 384.253906 623.796875 C 384.054688 623.722656 383.878906 623.609375 383.722656 623.46875 C 383.570312 623.328125 383.453125 623.164062 383.371094 622.976562 C 383.285156 622.789062 383.246094 622.597656 383.246094 622.394531 C 383.246094 622.195312 383.285156 622 383.371094 621.816406 C 383.453125 621.628906 383.570312 621.464844 383.722656 621.320312 C 383.878906 621.179688 384.054688 621.070312 384.253906 620.992188 C 384.453125 620.914062 384.664062 620.878906 384.878906 620.878906 C 385.097656 620.878906 385.304688 620.914062 385.503906 620.992188 C 385.707031 621.070312 385.882812 621.179688 386.035156 621.320312 C 386.1875 621.464844 386.308594 621.628906 386.390625 621.8125 C 386.472656 622 386.515625 622.195312 386.515625 622.394531 Z M 386.515625 622.394531 " fill-opacity="0.99" fill-rule="evenodd"/><path fill="#ffffff" d="M 384.09375 598.097656 C 384.09375 598.300781 384.015625 598.476562 383.859375 598.621094 C 383.703125 598.765625 383.515625 598.835938 383.296875 598.835938 C 383.074219 598.839844 382.886719 598.765625 382.730469 598.621094 C 382.574219 598.476562 382.5 598.300781 382.5 598.097656 C 382.5 597.894531 382.574219 597.71875 382.730469 597.574219 C 382.886719 597.429688 383.074219 597.359375 383.296875 597.359375 C 383.515625 597.359375 383.703125 597.429688 383.859375 597.574219 C 384.015625 597.71875 384.09375 597.894531 384.09375 598.097656 Z M 384.09375 598.097656 " fill-opacity="0.99" fill-rule="evenodd"/><path fill="#ffffff" d="M 422.964844 605.128906 C 422.964844 605.335938 422.886719 605.507812 422.730469 605.652344 C 422.574219 605.796875 422.386719 605.871094 422.167969 605.871094 C 421.949219 605.871094 421.757812 605.796875 421.605469 605.652344 C 421.449219 605.507812 421.371094 605.335938 421.371094 605.128906 C 421.371094 604.925781 421.449219 604.75 421.605469 604.609375 C 421.757812 604.464844 421.949219 604.390625 422.167969 604.390625 C 422.386719 604.390625 422.574219 604.464844 422.730469 604.605469 C 422.886719 604.75 422.964844 604.925781 422.964844 605.128906 Z M 422.964844 605.128906 " fill-opacity="0.99" fill-rule="evenodd"/><path fill="#ffffff" d="M 398.835938 632.59375 C 398.835938 632.796875 398.757812 632.972656 398.605469 633.117188 C 398.449219 633.261719 398.261719 633.332031 398.039062 633.332031 C 397.820312 633.332031 397.632812 633.261719 397.476562 633.117188 C 397.320312 632.972656 397.242188 632.796875 397.242188 632.59375 C 397.242188 632.386719 397.320312 632.214844 397.476562 632.070312 C 397.632812 631.925781 397.820312 631.851562 398.039062 631.851562 C 398.261719 631.851562 398.449219 631.925781 398.605469 632.070312 C 398.757812 632.214844 398.835938 632.386719 398.835938 632.59375 Z M 398.835938 632.59375 " fill-opacity="0.99" fill-rule="evenodd"/><path fill="#ffffff" d="M 408.554688 599.4375 C 408.554688 599.640625 408.476562 599.816406 408.320312 599.960938 C 408.167969 600.105469 407.976562 600.175781 407.757812 600.175781 C 407.539062 600.175781 407.351562 600.105469 407.195312 599.960938 C 407.039062 599.816406 406.960938 599.640625 406.960938 599.4375 C 406.960938 599.234375 407.039062 599.058594 407.195312 598.914062 C 407.351562 598.769531 407.539062 598.699219 407.757812 598.699219 C 407.976562 598.699219 408.167969 598.769531 408.320312 598.914062 C 408.476562 599.058594 408.554688 599.234375 408.554688 599.4375 Z M 408.554688 599.4375 " fill-opacity="0.99" fill-rule="evenodd"/><path fill="#ffffff" d="M 411.417969 617.195312 C 411.417969 617.398438 411.375 617.589844 411.292969 617.777344 C 411.207031 617.964844 411.089844 618.128906 410.9375 618.269531 C 410.785156 618.414062 410.605469 618.523438 410.40625 618.597656 C 410.207031 618.675781 409.996094 618.714844 409.78125 618.714844 C 409.5625 618.714844 409.355469 618.675781 409.15625 618.597656 C 408.957031 618.523438 408.777344 618.414062 408.625 618.269531 C 408.472656 618.128906 408.355469 617.964844 408.269531 617.777344 C 408.1875 617.589844 408.144531 617.398438 408.144531 617.195312 C 408.144531 616.996094 408.1875 616.800781 408.269531 616.617188 C 408.355469 616.429688 408.472656 616.265625 408.625 616.125 C 408.777344 615.980469 408.957031 615.871094 409.15625 615.792969 C 409.355469 615.71875 409.5625 615.679688 409.78125 615.679688 C 409.996094 615.679688 410.207031 615.71875 410.40625 615.792969 C 410.605469 615.871094 410.785156 615.980469 410.9375 616.125 C 411.089844 616.265625 411.207031 616.429688 411.292969 616.617188 C 411.375 616.800781 411.417969 616.996094 411.417969 617.195312 Z M 411.417969 617.195312 " fill-opacity="0.99" fill-rule="evenodd"/><path fill="#ffffff" d="M 417.679688 653.207031 C 417.679688 653.40625 417.636719 653.601562 417.554688 653.785156 C 417.472656 653.972656 417.351562 654.136719 417.199219 654.28125 C 417.046875 654.421875 416.871094 654.53125 416.667969 654.609375 C 416.46875 654.683594 416.261719 654.722656 416.042969 654.722656 C 415.828125 654.722656 415.617188 654.683594 415.417969 654.609375 C 415.21875 654.53125 415.042969 654.421875 414.886719 654.277344 C 414.734375 654.136719 414.617188 653.972656 414.535156 653.785156 C 414.449219 653.601562 414.410156 653.40625 414.410156 653.207031 C 414.410156 653.003906 414.449219 652.8125 414.535156 652.625 C 414.617188 652.4375 414.734375 652.273438 414.886719 652.132812 C 415.042969 651.988281 415.21875 651.878906 415.417969 651.804688 C 415.617188 651.726562 415.828125 651.6875 416.042969 651.6875 C 416.261719 651.6875 416.46875 651.726562 416.667969 651.804688 C 416.871094 651.878906 417.046875 651.988281 417.199219 652.132812 C 417.351562 652.273438 417.472656 652.4375 417.554688 652.625 C 417.636719 652.8125 417.679688 653.003906 417.679688 653.207031 Z M 417.679688 653.207031 " fill-opacity="0.99" fill-rule="evenodd"/><path fill="#ffffff" d="M 393.476562 613.167969 C 393.476562 613.371094 393.398438 613.546875 393.242188 613.691406 C 393.085938 613.835938 392.898438 613.90625 392.679688 613.90625 C 392.457031 613.90625 392.269531 613.835938 392.113281 613.691406 C 391.960938 613.546875 391.882812 613.371094 391.882812 613.167969 C 391.882812 612.964844 391.960938 612.789062 392.113281 612.644531 C 392.269531 612.5 392.457031 612.429688 392.679688 612.429688 C 392.898438 612.429688 393.085938 612.5 393.242188 612.644531 C 393.398438 612.789062 393.476562 612.964844 393.476562 613.167969 Z M 393.476562 613.167969 " fill-opacity="0.99" fill-rule="evenodd"/><path fill="#ffffff" d="M 424.304688 638.957031 C 424.304688 639.160156 424.226562 639.332031 424.070312 639.476562 C 423.914062 639.621094 423.726562 639.695312 423.507812 639.695312 C 423.289062 639.695312 423.101562 639.621094 422.945312 639.476562 C 422.789062 639.332031 422.710938 639.160156 422.710938 638.957031 C 422.710938 638.75 422.789062 638.578125 422.945312 638.433594 C 423.101562 638.289062 423.289062 638.214844 423.507812 638.214844 C 423.726562 638.214844 423.914062 638.289062 424.070312 638.433594 C 424.226562 638.578125 424.304688 638.75 424.304688 638.957031 Z M 424.304688 638.957031 " fill-opacity="0.99" fill-rule="evenodd"/><path fill="#ffffff" d="M 411.980469 637.464844 C 411.980469 637.667969 411.941406 637.859375 411.859375 638.046875 C 411.773438 638.234375 411.65625 638.398438 411.503906 638.539062 C 411.351562 638.679688 411.171875 638.792969 410.972656 638.867188 C 410.773438 638.945312 410.5625 638.984375 410.347656 638.984375 C 410.128906 638.984375 409.921875 638.945312 409.722656 638.867188 C 409.519531 638.792969 409.34375 638.679688 409.191406 638.539062 C 409.039062 638.398438 408.921875 638.234375 408.835938 638.046875 C 408.753906 637.859375 408.710938 637.667969 408.710938 637.464844 C 408.710938 637.265625 408.753906 637.070312 408.835938 636.886719 C 408.921875 636.699219 409.039062 636.535156 409.191406 636.390625 C 409.34375 636.25 409.523438 636.140625 409.722656 636.0625 C 409.921875 635.984375 410.128906 635.949219 410.347656 635.949219 C 410.5625 635.949219 410.773438 635.984375 410.972656 636.0625 C 411.171875 636.140625 411.351562 636.25 411.503906 636.390625 C 411.65625 636.535156 411.773438 636.699219 411.859375 636.882812 C 411.941406 637.070312 411.980469 637.265625 411.980469 637.464844 Z M 411.980469 637.464844 " fill-opacity="0.99" fill-rule="evenodd"/><path fill="#ffffff" d="M 426.980469 708.875 C 426.980469 709.242188 426.90625 709.59375 426.753906 709.929688 C 426.601562 710.269531 426.386719 710.570312 426.109375 710.828125 C 425.832031 711.085938 425.507812 711.285156 425.144531 711.425781 C 424.78125 711.566406 424.398438 711.636719 424.003906 711.636719 C 423.609375 711.636719 423.230469 711.566406 422.867188 711.425781 C 422.503906 711.285156 422.179688 711.085938 421.902344 710.828125 C 421.621094 710.570312 421.40625 710.269531 421.257812 709.929688 C 421.105469 709.59375 421.03125 709.242188 421.03125 708.875 C 421.03125 708.507812 421.105469 708.15625 421.257812 707.816406 C 421.40625 707.476562 421.621094 707.179688 421.902344 706.921875 C 422.179688 706.660156 422.503906 706.460938 422.867188 706.320312 C 423.230469 706.179688 423.609375 706.109375 424.003906 706.109375 C 424.398438 706.109375 424.78125 706.179688 425.144531 706.320312 C 425.507812 706.460938 425.832031 706.660156 426.109375 706.921875 C 426.386719 707.179688 426.601562 707.476562 426.753906 707.816406 C 426.90625 708.15625 426.980469 708.507812 426.980469 708.875 Z M 426.980469 708.875 " fill-opacity="0.99" fill-rule="evenodd"/><path fill="#ffffff" d="M 387.648438 672.878906 C 387.644531 673.246094 387.570312 673.597656 387.421875 673.9375 C 387.269531 674.273438 387.054688 674.574219 386.773438 674.832031 C 386.496094 675.09375 386.175781 675.292969 385.808594 675.433594 C 385.445312 675.570312 385.066406 675.640625 384.671875 675.640625 C 384.277344 675.640625 383.898438 675.574219 383.53125 675.433594 C 383.167969 675.292969 382.847656 675.09375 382.566406 674.832031 C 382.289062 674.574219 382.074219 674.277344 381.921875 673.9375 C 381.769531 673.597656 381.695312 673.246094 381.695312 672.878906 C 381.695312 672.511719 381.769531 672.160156 381.921875 671.820312 C 382.074219 671.484375 382.289062 671.183594 382.566406 670.925781 C 382.847656 670.667969 383.167969 670.46875 383.53125 670.328125 C 383.898438 670.1875 384.277344 670.117188 384.671875 670.117188 C 385.066406 670.117188 385.445312 670.1875 385.808594 670.328125 C 386.175781 670.46875 386.496094 670.667969 386.773438 670.925781 C 387.054688 671.183594 387.269531 671.484375 387.421875 671.820312 C 387.570312 672.160156 387.644531 672.511719 387.648438 672.878906 Z M 387.648438 672.878906 " fill-opacity="0.99" fill-rule="evenodd"/><path fill="#ffffff" d="M 385.691406 656.046875 C 385.691406 656.25 385.648438 656.441406 385.566406 656.628906 C 385.484375 656.8125 385.363281 656.980469 385.210938 657.121094 C 385.058594 657.261719 384.882812 657.371094 384.679688 657.449219 C 384.480469 657.527344 384.273438 657.566406 384.054688 657.566406 C 383.839844 657.566406 383.628906 657.527344 383.429688 657.449219 C 383.230469 657.371094 383.054688 657.261719 382.898438 657.121094 C 382.746094 656.980469 382.628906 656.8125 382.546875 656.628906 C 382.460938 656.441406 382.421875 656.25 382.421875 656.046875 C 382.421875 655.847656 382.460938 655.652344 382.546875 655.464844 C 382.628906 655.28125 382.746094 655.117188 382.898438 654.972656 C 383.054688 654.832031 383.230469 654.722656 383.429688 654.644531 C 383.628906 654.566406 383.839844 654.53125 384.054688 654.53125 C 384.273438 654.527344 384.480469 654.566406 384.679688 654.644531 C 384.882812 654.722656 385.058594 654.832031 385.210938 654.972656 C 385.363281 655.117188 385.484375 655.28125 385.566406 655.464844 C 385.648438 655.652344 385.691406 655.847656 385.691406 656.046875 Z M 385.691406 656.046875 " fill-opacity="0.99" fill-rule="evenodd"/><path fill="#ffffff" d="M 404.171875 648.234375 C 404.171875 648.433594 404.132812 648.628906 404.046875 648.8125 C 403.964844 649 403.847656 649.164062 403.695312 649.304688 C 403.539062 649.449219 403.363281 649.558594 403.164062 649.636719 C 402.964844 649.710938 402.753906 649.75 402.539062 649.75 C 402.320312 649.75 402.113281 649.710938 401.914062 649.636719 C 401.710938 649.558594 401.535156 649.449219 401.382812 649.304688 C 401.230469 649.164062 401.109375 649 401.027344 648.8125 C 400.945312 648.628906 400.902344 648.433594 400.902344 648.234375 C 400.902344 648.03125 400.945312 647.835938 401.027344 647.652344 C 401.109375 647.464844 401.230469 647.300781 401.382812 647.160156 C 401.535156 647.015625 401.710938 646.90625 401.914062 646.832031 C 402.113281 646.753906 402.320312 646.714844 402.539062 646.714844 C 402.753906 646.714844 402.964844 646.753906 403.164062 646.832031 C 403.363281 646.90625 403.539062 647.015625 403.695312 647.160156 C 403.847656 647.300781 403.964844 647.464844 404.046875 647.652344 C 404.132812 647.835938 404.171875 648.03125 404.171875 648.234375 Z M 404.171875 648.234375 " fill-opacity="0.99" fill-rule="evenodd"/><path fill="#ffffff" d="M 425.5 678.308594 C 425.5 678.507812 425.457031 678.703125 425.375 678.886719 C 425.292969 679.074219 425.171875 679.238281 425.019531 679.378906 C 424.867188 679.523438 424.691406 679.632812 424.488281 679.710938 C 424.289062 679.785156 424.082031 679.824219 423.863281 679.824219 C 423.648438 679.824219 423.4375 679.785156 423.238281 679.710938 C 423.039062 679.632812 422.859375 679.523438 422.707031 679.378906 C 422.554688 679.238281 422.4375 679.074219 422.351562 678.886719 C 422.269531 678.703125 422.230469 678.507812 422.230469 678.308594 C 422.230469 678.105469 422.269531 677.914062 422.351562 677.726562 C 422.4375 677.539062 422.554688 677.375 422.707031 677.234375 C 422.859375 677.089844 423.039062 676.980469 423.238281 676.90625 C 423.4375 676.828125 423.648438 676.789062 423.863281 676.789062 C 424.082031 676.789062 424.289062 676.828125 424.488281 676.90625 C 424.691406 676.980469 424.867188 677.089844 425.019531 677.234375 C 425.171875 677.375 425.292969 677.539062 425.375 677.726562 C 425.457031 677.914062 425.5 678.105469 425.5 678.308594 Z M 425.5 678.308594 " fill-opacity="0.99" fill-rule="evenodd"/><path fill="#ffffff" d="M 401.792969 664.53125 C 401.792969 664.734375 401.714844 664.910156 401.5625 665.054688 C 401.40625 665.199219 401.21875 665.269531 400.996094 665.269531 C 400.777344 665.269531 400.589844 665.199219 400.433594 665.054688 C 400.277344 664.910156 400.199219 664.734375 400.199219 664.53125 C 400.199219 664.324219 400.277344 664.152344 400.433594 664.007812 C 400.589844 663.863281 400.777344 663.789062 400.996094 663.789062 C 401.21875 663.789062 401.40625 663.863281 401.5625 664.007812 C 401.714844 664.152344 401.792969 664.324219 401.792969 664.53125 Z M 401.792969 664.53125 " fill-opacity="0.99" fill-rule="evenodd"/><path fill="#ffffff" d="M 419.566406 667.371094 C 419.566406 667.578125 419.488281 667.75 419.332031 667.894531 C 419.175781 668.039062 418.988281 668.113281 418.769531 668.113281 C 418.546875 668.113281 418.359375 668.039062 418.203125 667.894531 C 418.050781 667.75 417.972656 667.578125 417.972656 667.371094 C 417.972656 667.167969 418.050781 666.992188 418.207031 666.847656 C 418.359375 666.703125 418.546875 666.632812 418.769531 666.632812 C 418.988281 666.632812 419.175781 666.703125 419.332031 666.847656 C 419.488281 666.992188 419.566406 667.167969 419.566406 667.371094 Z M 419.566406 667.371094 " fill-opacity="0.99" fill-rule="evenodd"/><path fill="#ffffff" d="M 395.632812 653.398438 C 395.632812 653.605469 395.554688 653.777344 395.398438 653.921875 C 395.246094 654.066406 395.054688 654.140625 394.835938 654.140625 C 394.617188 654.140625 394.429688 654.066406 394.273438 653.921875 C 394.117188 653.777344 394.039062 653.605469 394.039062 653.398438 C 394.039062 653.195312 394.117188 653.019531 394.273438 652.878906 C 394.429688 652.734375 394.617188 652.660156 394.835938 652.660156 C 395.054688 652.660156 395.246094 652.734375 395.398438 652.878906 C 395.554688 653.019531 395.632812 653.195312 395.632812 653.398438 Z M 395.632812 653.398438 " fill-opacity="0.99" fill-rule="evenodd"/><path fill="#ffffff" d="M 426.4375 692.710938 C 426.4375 692.914062 426.359375 693.089844 426.203125 693.234375 C 426.046875 693.378906 425.859375 693.449219 425.640625 693.449219 C 425.421875 693.449219 425.234375 693.378906 425.078125 693.234375 C 424.921875 693.089844 424.84375 692.914062 424.84375 692.710938 C 424.84375 692.503906 424.921875 692.332031 425.078125 692.1875 C 425.234375 692.042969 425.421875 691.96875 425.640625 691.96875 C 425.859375 691.96875 426.046875 692.042969 426.203125 692.1875 C 426.359375 692.332031 426.4375 692.503906 426.4375 692.710938 Z M 426.4375 692.710938 " fill-opacity="0.99" fill-rule="evenodd"/><path fill="#ffffff" d="M 405.347656 677.792969 C 405.347656 677.996094 405.269531 678.171875 405.117188 678.316406 C 404.960938 678.460938 404.773438 678.53125 404.550781 678.53125 C 404.332031 678.53125 404.144531 678.460938 403.988281 678.316406 C 403.832031 678.171875 403.753906 677.996094 403.753906 677.792969 C 403.753906 677.585938 403.832031 677.414062 403.988281 677.269531 C 404.144531 677.125 404.332031 677.050781 404.550781 677.050781 C 404.773438 677.050781 404.960938 677.125 405.117188 677.269531 C 405.269531 677.414062 405.347656 677.585938 405.347656 677.792969 Z M 405.347656 677.792969 " fill-opacity="0.99" fill-rule="evenodd"/><path fill="#ffffff" d="M 412.703125 696.066406 C 412.703125 696.269531 412.660156 696.460938 412.578125 696.648438 C 412.496094 696.835938 412.378906 697 412.222656 697.140625 C 412.070312 697.285156 411.894531 697.394531 411.695312 697.46875 C 411.492188 697.546875 411.285156 697.585938 411.066406 697.585938 C 410.851562 697.585938 410.644531 697.546875 410.441406 697.46875 C 410.242188 697.394531 410.066406 697.285156 409.914062 697.140625 C 409.757812 697 409.640625 696.835938 409.558594 696.648438 C 409.476562 696.460938 409.433594 696.269531 409.433594 696.066406 C 409.433594 695.867188 409.476562 695.671875 409.558594 695.488281 C 409.640625 695.300781 409.757812 695.136719 409.914062 694.996094 C 410.066406 694.851562 410.242188 694.742188 410.441406 694.664062 C 410.644531 694.589844 410.851562 694.550781 411.066406 694.550781 C 411.285156 694.550781 411.492188 694.589844 411.695312 694.664062 C 411.894531 694.742188 412.070312 694.851562 412.222656 694.996094 C 412.378906 695.136719 412.496094 695.300781 412.578125 695.488281 C 412.660156 695.671875 412.703125 695.867188 412.703125 696.066406 Z M 412.703125 696.066406 " fill-opacity="0.99" fill-rule="evenodd"/><path fill="#ffffff" d="M 391.613281 689.4375 C 391.613281 689.636719 391.574219 689.832031 391.488281 690.019531 C 391.40625 690.203125 391.289062 690.367188 391.136719 690.511719 C 390.980469 690.652344 390.804688 690.761719 390.605469 690.839844 C 390.40625 690.917969 390.195312 690.957031 389.980469 690.957031 C 389.761719 690.957031 389.554688 690.917969 389.355469 690.839844 C 389.152344 690.761719 388.976562 690.652344 388.824219 690.511719 C 388.671875 690.367188 388.550781 690.203125 388.46875 690.019531 C 388.386719 689.832031 388.34375 689.636719 388.34375 689.4375 C 388.34375 689.234375 388.386719 689.042969 388.46875 688.855469 C 388.550781 688.671875 388.671875 688.507812 388.824219 688.363281 C 388.976562 688.222656 389.152344 688.113281 389.355469 688.035156 C 389.554688 687.957031 389.761719 687.917969 389.980469 687.917969 C 390.195312 687.917969 390.40625 687.957031 390.605469 688.035156 C 390.804688 688.113281 390.980469 688.222656 391.136719 688.363281 C 391.289062 688.507812 391.40625 688.671875 391.488281 688.855469 C 391.574219 689.042969 391.613281 689.234375 391.613281 689.4375 Z M 391.613281 689.4375 " fill-opacity="0.99" fill-rule="evenodd"/><path fill="#ffffff" d="M 387.648438 705.558594 C 387.644531 705.925781 387.570312 706.277344 387.421875 706.617188 C 387.269531 706.953125 387.054688 707.253906 386.773438 707.511719 C 386.496094 707.773438 386.175781 707.972656 385.808594 708.113281 C 385.445312 708.25 385.066406 708.320312 384.671875 708.320312 C 384.277344 708.320312 383.898438 708.25 383.53125 708.109375 C 383.167969 707.972656 382.847656 707.769531 382.566406 707.511719 C 382.289062 707.253906 382.074219 706.953125 381.921875 706.617188 C 381.769531 706.277344 381.695312 705.925781 381.695312 705.558594 C 381.695312 705.191406 381.769531 704.839844 381.921875 704.5 C 382.074219 704.164062 382.289062 703.863281 382.566406 703.605469 C 382.847656 703.347656 383.167969 703.144531 383.53125 703.007812 C 383.898438 702.867188 384.277344 702.796875 384.671875 702.796875 C 385.066406 702.796875 385.445312 702.867188 385.808594 703.007812 C 386.175781 703.144531 386.496094 703.347656 386.773438 703.605469 C 387.054688 703.863281 387.269531 704.164062 387.421875 704.5 C 387.570312 704.839844 387.644531 705.191406 387.648438 705.558594 Z M 387.648438 705.558594 " fill-opacity="0.99" fill-rule="evenodd"/><path fill="#ffffff" d="M 387.578125 683 C 387.578125 683.207031 387.5 683.378906 387.34375 683.523438 C 387.1875 683.667969 387 683.742188 386.78125 683.742188 C 386.558594 683.742188 386.371094 683.667969 386.214844 683.523438 C 386.0625 683.378906 385.984375 683.207031 385.984375 683 C 385.984375 682.796875 386.0625 682.621094 386.214844 682.476562 C 386.371094 682.332031 386.558594 682.261719 386.78125 682.261719 C 387 682.261719 387.1875 682.332031 387.34375 682.476562 C 387.5 682.621094 387.578125 682.796875 387.578125 683 Z M 387.578125 683 " fill-opacity="0.99" fill-rule="evenodd"/><path fill="#ffffff" d="M 398.476562 699.8125 C 398.476562 700.019531 398.398438 700.191406 398.242188 700.335938 C 398.089844 700.480469 397.898438 700.554688 397.679688 700.554688 C 397.460938 700.554688 397.273438 700.480469 397.117188 700.335938 C 396.960938 700.191406 396.882812 700.019531 396.882812 699.8125 C 396.882812 699.609375 396.960938 699.433594 397.117188 699.292969 C 397.273438 699.148438 397.460938 699.074219 397.679688 699.074219 C 397.898438 699.074219 398.089844 699.148438 398.242188 699.292969 C 398.398438 699.433594 398.476562 699.609375 398.476562 699.8125 Z M 398.476562 699.8125 " fill-opacity="0.99" fill-rule="evenodd"/><path fill="#ffffff" d="M 411.507812 710.234375 C 411.507812 710.4375 411.433594 710.613281 411.277344 710.757812 C 411.121094 710.902344 410.933594 710.972656 410.710938 710.972656 C 410.492188 710.972656 410.304688 710.902344 410.148438 710.757812 C 409.992188 710.613281 409.914062 710.4375 409.914062 710.234375 C 409.914062 710.03125 409.992188 709.855469 410.148438 709.710938 C 410.304688 709.566406 410.492188 709.492188 410.710938 709.492188 C 410.933594 709.492188 411.121094 709.566406 411.277344 709.710938 C 411.433594 709.855469 411.507812 710.03125 411.507812 710.234375 Z M 411.507812 710.234375 " fill-opacity="0.99" fill-rule="evenodd"/><path fill="#ffffff" d="M 424.542969 723.96875 C 424.542969 724.171875 424.464844 724.347656 424.308594 724.492188 C 424.152344 724.636719 423.964844 724.707031 423.746094 724.707031 C 423.523438 724.707031 423.335938 724.636719 423.179688 724.492188 C 423.027344 724.347656 422.949219 724.171875 422.949219 723.96875 C 422.949219 723.765625 423.027344 723.589844 423.179688 723.445312 C 423.335938 723.300781 423.523438 723.230469 423.746094 723.230469 C 423.964844 723.230469 424.152344 723.300781 424.308594 723.445312 C 424.464844 723.589844 424.542969 723.765625 424.542969 723.96875 Z M 424.542969 723.96875 " fill-opacity="0.99" fill-rule="evenodd"/><path fill="#ffffff" d="M 407.550781 723.320312 C 407.550781 723.6875 407.476562 724.039062 407.324219 724.375 C 407.171875 724.714844 406.957031 725.015625 406.679688 725.273438 C 406.398438 725.53125 406.078125 725.730469 405.714844 725.871094 C 405.347656 726.011719 404.96875 726.082031 404.574219 726.082031 C 404.179688 726.082031 403.800781 726.011719 403.4375 725.871094 C 403.070312 725.730469 402.75 725.53125 402.472656 725.273438 C 402.191406 725.015625 401.976562 724.714844 401.828125 724.375 C 401.675781 724.039062 401.601562 723.6875 401.601562 723.320312 C 401.601562 722.953125 401.675781 722.601562 401.828125 722.261719 C 401.976562 721.921875 402.191406 721.625 402.472656 721.367188 C 402.75 721.105469 403.070312 720.90625 403.4375 720.765625 C 403.800781 720.625 404.179688 720.554688 404.574219 720.554688 C 404.96875 720.554688 405.347656 720.625 405.714844 720.765625 C 406.078125 720.90625 406.398438 721.105469 406.679688 721.367188 C 406.957031 721.625 407.171875 721.921875 407.324219 722.261719 C 407.476562 722.601562 407.550781 722.953125 407.550781 723.320312 Z M 407.550781 723.320312 " fill-opacity="0.99" fill-rule="evenodd"/><path fill="#ffffff" d="M 384.503906 722.117188 C 384.503906 722.316406 384.464844 722.511719 384.382812 722.699219 C 384.296875 722.882812 384.179688 723.046875 384.027344 723.191406 C 383.875 723.332031 383.695312 723.441406 383.496094 723.519531 C 383.296875 723.597656 383.085938 723.632812 382.871094 723.632812 C 382.652344 723.632812 382.445312 723.597656 382.246094 723.519531 C 382.042969 723.441406 381.867188 723.332031 381.714844 723.191406 C 381.5625 723.046875 381.441406 722.882812 381.359375 722.699219 C 381.277344 722.511719 381.234375 722.316406 381.234375 722.117188 C 381.234375 721.914062 381.277344 721.722656 381.359375 721.535156 C 381.441406 721.347656 381.5625 721.183594 381.714844 721.042969 C 381.867188 720.902344 382.042969 720.789062 382.246094 720.714844 C 382.445312 720.636719 382.652344 720.597656 382.871094 720.597656 C 383.085938 720.597656 383.296875 720.636719 383.496094 720.714844 C 383.695312 720.789062 383.875 720.902344 384.027344 721.042969 C 384.179688 721.183594 384.296875 721.347656 384.382812 721.535156 C 384.464844 721.722656 384.503906 721.914062 384.503906 722.117188 Z M 384.503906 722.117188 " fill-opacity="0.99" fill-rule="evenodd"/><path fill="#ffffff" d="M 396.589844 715.25 C 396.589844 715.449219 396.546875 715.644531 396.464844 715.828125 C 396.382812 716.015625 396.265625 716.179688 396.113281 716.324219 C 395.957031 716.464844 395.78125 716.574219 395.582031 716.652344 C 395.378906 716.730469 395.171875 716.765625 394.957031 716.765625 C 394.738281 716.765625 394.53125 716.730469 394.328125 716.652344 C 394.128906 716.574219 393.953125 716.464844 393.800781 716.324219 C 393.644531 716.179688 393.527344 716.015625 393.445312 715.828125 C 393.363281 715.644531 393.320312 715.449219 393.320312 715.25 C 393.320312 715.046875 393.363281 714.855469 393.445312 714.667969 C 393.527344 714.480469 393.644531 714.316406 393.800781 714.175781 C 393.953125 714.03125 394.128906 713.921875 394.328125 713.847656 C 394.53125 713.769531 394.738281 713.730469 394.957031 713.730469 C 395.171875 713.730469 395.378906 713.769531 395.582031 713.847656 C 395.78125 713.921875 395.957031 714.03125 396.113281 714.175781 C 396.265625 714.316406 396.382812 714.480469 396.464844 714.667969 C 396.546875 714.855469 396.589844 715.046875 396.589844 715.25 Z M 396.589844 715.25 " fill-opacity="0.99" fill-rule="evenodd"/><path fill="#ffffff" d="M 386.394531 714.023438 C 386.394531 714.226562 386.316406 714.402344 386.160156 714.546875 C 386.003906 714.691406 385.816406 714.761719 385.59375 714.761719 C 385.375 714.761719 385.1875 714.691406 385.03125 714.546875 C 384.875 714.402344 384.796875 714.226562 384.796875 714.023438 C 384.796875 713.820312 384.875 713.644531 385.03125 713.5 C 385.1875 713.355469 385.375 713.28125 385.59375 713.28125 C 385.816406 713.28125 386.003906 713.355469 386.160156 713.5 C 386.316406 713.644531 386.394531 713.816406 386.394531 714.023438 Z M 386.394531 714.023438 " fill-opacity="0.99" fill-rule="evenodd"/><path fill="#ffffff" d="M 392.789062 724.207031 C 392.789062 724.410156 392.710938 724.585938 392.558594 724.730469 C 392.402344 724.875 392.214844 724.945312 391.992188 724.945312 C 391.773438 724.945312 391.585938 724.875 391.429688 724.730469 C 391.273438 724.585938 391.195312 724.410156 391.195312 724.207031 C 391.195312 724 391.273438 723.828125 391.429688 723.683594 C 391.585938 723.539062 391.773438 723.464844 391.992188 723.464844 C 392.214844 723.464844 392.402344 723.539062 392.558594 723.683594 C 392.710938 723.828125 392.789062 724 392.789062 724.207031 Z M 392.789062 724.207031 " fill-opacity="0.99" fill-rule="evenodd"/></svg>