<svg xmlns="http://www.w3.org/2000/svg" xmlns:xlink="http://www.w3.org/1999/xlink" width="1080" zoomAndPan="magnify" viewBox="0 0 810 809.999993" height="1080" preserveAspectRatio="xMidYMid meet" version="1.0"><defs><clipPath id="ded1bccbf7"><path d="M 210 302 L 338 302 L 338 619 L 210 619 Z M 210 302 " clip-rule="nonzero"/></clipPath><clipPath id="dea996f958"><path d="M 210.191406 309.167969 L 228.203125 302.789062 L 337.730469 612.011719 L 319.71875 618.390625 Z M 210.191406 309.167969 " clip-rule="nonzero"/></clipPath><clipPath id="21aebc099d"><path d="M 487 192 L 592 192 L 592 607 L 487 607 Z M 487 192 " clip-rule="nonzero"/></clipPath><clipPath id="b3e325af6d"><path d="M 573.492188 192.796875 L 591.832031 196.632812 L 506.105469 606.5 L 487.765625 602.664062 Z M 573.492188 192.796875 " clip-rule="nonzero"/></clipPath></defs><g clip-path="url(#ded1bccbf7)"><g clip-path="url(#dea996f958)"><path fill="#6552ff" d="M 210.191406 309.167969 L 228.203125 302.789062 L 337.742188 612.042969 L 319.726562 618.425781 Z M 210.191406 309.167969 " fill-opacity="1" fill-rule="nonzero"/></g></g><g clip-path="url(#21aebc099d)"><g clip-path="url(#b3e325af6d)"><path fill="#6552ff" d="M 573.492188 192.796875 L 591.832031 196.632812 L 506.105469 606.511719 L 487.761719 602.675781 Z M 573.492188 192.796875 " fill-opacity="1" fill-rule="nonzero"/></g></g></svg>