<svg xmlns="http://www.w3.org/2000/svg" xmlns:xlink="http://www.w3.org/1999/xlink" width="1080" zoomAndPan="magnify" viewBox="0 0 810 809.999993" height="1080" preserveAspectRatio="xMidYMid meet" version="1.0"><defs><clipPath id="daef9250f7"><path d="M 0 196 L 283 196 L 283 583.886719 L 0 583.886719 Z M 0 196 " clip-rule="nonzero"/></clipPath><clipPath id="db278300c1"><path d="M 169 182.636719 L 364 182.636719 L 364 241 L 169 241 Z M 169 182.636719 " clip-rule="nonzero"/></clipPath></defs><path fill="#e5ccf9" d="M 685.542969 351.371094 C 688.136719 352.078125 688.921875 341.320312 684.050781 342.8125 C 679.183594 344.304688 682.480469 350.507812 685.542969 351.371094 Z M 685.542969 351.371094 " fill-opacity="1" fill-rule="nonzero"/><path fill="#e5ccf9" d="M 462.398438 191.351562 C 462.398438 191.351562 460.746094 193.628906 464.671875 193.628906 C 468.679688 193.628906 476.921875 190.960938 483.519531 190.960938 C 490.113281 190.960938 488.152344 188.683594 486.816406 188.683594 C 485.480469 188.683594 481.867188 185.070312 476.609375 185.386719 C 471.347656 185.699219 471.660156 188.054688 468.363281 188.054688 C 465.066406 188.054688 465.695312 187.035156 458.785156 187.425781 C 451.875 187.742188 458.785156 190.722656 462.398438 191.351562 Z M 462.398438 191.351562 " fill-opacity="1" fill-rule="nonzero"/><path fill="#e5ccf9" d="M 692.21875 382.9375 C 694.417969 384.425781 694.808594 387.019531 694.417969 391.101562 C 694.023438 395.183594 690.335938 394.792969 696.617188 397.382812 C 702.898438 399.972656 710.355469 404.449219 708.472656 396.285156 C 706.585938 388.117188 708.078125 387.019531 701.40625 380.660156 C 694.730469 374.378906 694.339844 378.460938 693.632812 373.199219 C 692.925781 368.015625 691.039062 358.359375 688.449219 362.050781 C 686.171875 365.347656 684.367188 366.527344 686.957031 372.101562 C 689.628906 377.753906 689.941406 381.445312 692.21875 382.9375 Z M 692.21875 382.9375 " fill-opacity="1" fill-rule="nonzero"/><path fill="#e5ccf9" d="M 756.445312 430.4375 C 751.578125 425.257812 743.414062 421.488281 740.113281 421.878906 C 736.738281 422.273438 733.832031 427.457031 731.949219 425.570312 C 730.0625 423.6875 724.488281 414.8125 721.585938 417.40625 C 718.601562 419.996094 721.976562 422.980469 718.207031 422.980469 C 714.519531 422.980469 713.417969 427.457031 712.632812 421.488281 C 711.925781 415.519531 708.941406 412.539062 708.15625 417.011719 C 707.449219 421.488281 707.058594 424.472656 705.175781 421.09375 C 703.289062 417.71875 702.191406 419.996094 702.191406 416.621094 C 702.191406 413.242188 694.730469 409.554688 691.824219 413.242188 C 689.941406 415.597656 689.234375 415.835938 688.449219 421.015625 C 687.742188 426.199219 685.859375 434.363281 689.941406 432.167969 C 694.023438 429.96875 694.808594 431.773438 696.617188 429.183594 C 698.5 426.59375 700.699219 425.101562 704.074219 426.59375 C 707.449219 428.082031 705.960938 428.082031 711.847656 427.296875 C 717.816406 426.59375 720.71875 426.59375 724.882812 429.183594 C 728.964844 431.773438 737.128906 430.28125 737.128906 432.875 C 737.128906 435.464844 728.574219 437.347656 737.128906 439.941406 C 745.6875 442.53125 747.496094 448.5 750.164062 445.515625 C 752.757812 442.53125 756.445312 438.449219 759.117188 441.433594 C 761.707031 444.414062 771.757812 452.582031 769.871094 448.105469 C 767.988281 443.628906 768.382812 439.546875 774.347656 434.757812 C 780.316406 429.96875 778.824219 427.691406 776.234375 427.691406 C 773.640625 427.691406 773.640625 431.066406 767.675781 431.773438 C 761.628906 432.714844 761.3125 435.621094 756.445312 430.4375 Z M 756.445312 430.4375 " fill-opacity="1" fill-rule="nonzero"/><path fill="#e5ccf9" d="M 408.847656 198.417969 C 409.238281 198.496094 409.554688 198.574219 409.867188 198.65625 C 413.164062 199.988281 415.519531 198.027344 415.835938 195.355469 C 419.445312 190.097656 418.113281 199.675781 422.117188 198.027344 C 426.042969 196.378906 431.695312 192.371094 436.328125 190.097656 C 440.960938 187.820312 430.675781 188.761719 422.429688 187.425781 C 414.1875 186.089844 402.566406 188.445312 399.269531 190.722656 C 396.207031 192.84375 404.058594 197.003906 408.847656 198.417969 Z M 408.847656 198.417969 " fill-opacity="1" fill-rule="nonzero"/><path fill="#e5ccf9" d="M 678.085938 395.890625 C 675.808594 398.796875 671.410156 405.15625 668.425781 407.433594 C 665.445312 409.632812 660.261719 406.726562 660.65625 411.910156 C 661.046875 417.089844 661.359375 419.367188 661.753906 423.058594 C 662.144531 426.75 662.851562 429.027344 668.425781 429.027344 C 674.003906 429.027344 676.59375 430.910156 678.476562 430.125 C 680.363281 429.417969 679.96875 426.042969 682.167969 421.566406 C 684.367188 417.089844 688.136719 418.191406 686.644531 414.894531 C 685.152344 411.515625 685.152344 412.300781 685.152344 408.925781 C 685.152344 405.550781 687.035156 407.824219 685.9375 402.25 C 684.757812 396.675781 680.675781 392.59375 678.085938 395.890625 Z M 678.085938 395.890625 " fill-opacity="1" fill-rule="nonzero"/><path fill="#e5ccf9" d="M 690.804688 447.476562 C 696.066406 448.105469 700.070312 447.476562 703.683594 445.515625 C 707.292969 443.550781 705.644531 441.195312 705.332031 440.253906 C 705.015625 439.234375 702.347656 441.273438 698.734375 441.902344 C 695.125 442.53125 694.101562 442.53125 689.46875 442.921875 C 684.835938 443.238281 687.820312 441.273438 682.875 440.960938 C 677.929688 440.648438 672.980469 439.625 667.328125 437.664062 C 661.675781 435.699219 658.769531 434.050781 654.765625 432.714844 C 650.761719 431.382812 654.453125 429.105469 654.136719 423.449219 C 653.824219 417.796875 650.132812 420.152344 647.226562 418.191406 C 644.242188 416.226562 645.265625 411.910156 646.601562 413.242188 C 647.933594 414.578125 648.25 416.226562 648.25 409.238281 C 648.25 402.328125 641.96875 397.695312 638.042969 391.730469 C 634.035156 385.761719 634.742188 382.464844 635.058594 379.480469 C 635.371094 376.496094 642.359375 382.152344 645.972656 386.390625 C 649.582031 390.710938 649.582031 390.710938 651.625 389.6875 C 653.585938 388.667969 659.554688 385.371094 660.890625 380.109375 C 662.226562 374.847656 650.289062 364.25 648.640625 359.300781 C 646.992188 354.355469 650.917969 357.339844 652.960938 354.042969 C 654.921875 350.742188 657.277344 355.375 655.941406 357.652344 C 654.609375 359.929688 656.257812 361.265625 657.59375 363.621094 C 658.925781 365.898438 658.925781 363.621094 660.261719 360.636719 C 661.597656 357.652344 660.574219 356.632812 662.929688 354.667969 C 665.285156 352.707031 674.160156 350.035156 676.515625 347.761719 C 678.871094 345.484375 680.519531 342.8125 683.425781 334.570312 C 686.410156 326.324219 683.109375 326.636719 681.777344 323.65625 C 680.441406 320.671875 676.515625 315.722656 674.160156 312.742188 C 671.882812 309.757812 673.84375 310.464844 675.496094 309.441406 C 677.144531 308.421875 675.808594 306.144531 671.882812 304.808594 C 667.878906 303.476562 668.585938 306.144531 664.972656 305.4375 C 661.359375 304.808594 663.324219 302.140625 667.25 297.507812 C 671.253906 292.875 669.214844 298.527344 671.882812 300.492188 C 674.550781 302.453125 675.179688 298.84375 677.144531 299.863281 C 679.105469 300.882812 683.109375 302.847656 686.09375 306.773438 C 689.078125 310.699219 689.078125 315.332031 692.0625 315.019531 C 695.046875 314.703125 695.046875 313.367188 696.378906 310.386719 C 697.714844 307.402344 692.769531 304.730469 690.414062 302.453125 C 688.058594 300.179688 685.78125 300.179688 687.742188 298.136719 C 689.707031 296.171875 688.058594 293.191406 689.078125 290.835938 C 690.097656 288.558594 693.710938 289.8125 697.324219 288.164062 C 700.933594 286.515625 701.25 280.863281 701.25 274.972656 C 701.25 269.007812 698.265625 266.414062 696.617188 264.375 C 694.96875 262.410156 698.578125 263.351562 701.5625 265.707031 C 704.546875 267.984375 709.179688 280.546875 710.121094 285.574219 C 711.140625 290.519531 710.433594 290.519531 714.4375 294.839844 C 718.445312 299.15625 717.109375 298.449219 715.773438 303.398438 C 714.4375 308.34375 711.140625 309.679688 706.195312 311.011719 C 701.25 312.347656 702.898438 313.289062 699.914062 318.316406 C 696.929688 323.261719 701.5625 323.578125 704.230469 324.910156 C 706.902344 326.246094 708.15625 321.300781 711.535156 318.945312 C 714.832031 316.667969 718.445312 314.9375 724.097656 314.9375 C 729.75 314.9375 722.449219 307.324219 722.132812 303.398438 C 721.820312 299.472656 721.507812 296.800781 720.171875 293.816406 C 718.835938 290.835938 721.507812 290.835938 725.433594 288.871094 C 729.359375 286.910156 729.042969 282.902344 726.765625 282.902344 C 724.488281 282.902344 722.449219 284.554688 717.1875 284.238281 C 711.925781 283.925781 713.261719 279.605469 711.925781 277.957031 C 710.59375 276.308594 708.941406 272.695312 708.628906 269.714844 C 708.316406 266.730469 703.683594 262.804688 700.382812 259.820312 C 697.085938 256.835938 695.125 254.875 695.125 256.207031 C 695.125 257.542969 693.160156 255.894531 688.527344 255.578125 C 683.894531 255.265625 682.875 256.207031 678.949219 255.894531 C 674.945312 255.578125 679.261719 248.984375 680.910156 244.351562 C 682.5625 239.71875 687.195312 242.390625 690.804688 242.390625 C 694.417969 242.390625 696.066406 242.703125 701.40625 244.039062 C 706.664062 245.371094 704.390625 240.738281 705.410156 237.128906 C 706.429688 233.515625 708.707031 235.480469 711.691406 236.8125 C 714.675781 238.148438 715.617188 238.460938 715.617188 235.480469 C 715.617188 232.496094 718.285156 231.867188 720.5625 234.457031 C 722.839844 237.128906 716.558594 242.703125 716.558594 242.703125 C 716.558594 242.703125 714.597656 248.671875 718.207031 250.632812 C 721.820312 252.597656 729.121094 261.234375 733.441406 264.214844 C 737.757812 267.199219 734.773438 259.269531 734.773438 253.617188 C 734.773438 247.964844 730.847656 248.671875 727.867188 243.410156 C 724.882812 238.148438 726.84375 240.425781 732.5 240.425781 C 738.152344 240.425781 738.464844 238.460938 739.800781 236.8125 C 741.136719 235.164062 742.078125 234.851562 747.101562 234.851562 C 752.050781 234.851562 749.066406 232.886719 746.789062 230.21875 C 744.511719 227.550781 739.878906 228.253906 741.527344 226.605469 C 743.175781 224.957031 752.128906 227.628906 756.367188 229.277344 C 760.6875 230.925781 759.664062 229.589844 759.039062 225.664062 C 758.410156 221.738281 754.71875 224.644531 744.199219 220.71875 C 733.597656 216.792969 722.054688 214.4375 718.445312 214.4375 C 714.832031 214.4375 717.421875 212.160156 720.09375 212.160156 C 722.761719 212.160156 722.054688 209.882812 719.464844 208.546875 C 716.792969 207.210938 714.519531 208.234375 713.496094 211.21875 C 712.476562 214.199219 716.480469 214.515625 708.863281 214.515625 C 701.25 214.515625 695.671875 214.515625 686.722656 212.867188 C 677.769531 211.21875 674.472656 211.21875 666.855469 210.902344 C 659.242188 210.589844 659.949219 207.292969 652.015625 207.292969 C 644.085938 207.292969 646.757812 204.308594 643.457031 200.695312 C 640.160156 197.082031 638.511719 198.027344 628.617188 198.027344 C 618.726562 198.027344 623.988281 201.953125 625.949219 202.660156 C 627.914062 203.285156 633.25 204.9375 636.863281 208.3125 C 640.476562 211.609375 630.269531 210.273438 625.949219 210.589844 C 621.632812 210.902344 622.023438 208.3125 617 205.328125 C 612.050781 202.34375 599.804688 203.992188 592.894531 203.679688 C 585.984375 203.367188 585.589844 203.679688 583 198.734375 C 580.332031 193.785156 574.753906 196.457031 567.453125 196.457031 C 560.152344 196.457031 556.226562 192.84375 552.613281 190.488281 C 549 188.210938 543.347656 187.820312 535.417969 186.5625 C 527.488281 185.226562 531.804688 191.507812 534.789062 191.824219 C 534.789062 191.824219 538.085938 193.15625 541.386719 193.472656 C 544.683594 193.785156 551.671875 194.101562 555.285156 198.417969 C 558.894531 202.738281 544.054688 201.089844 537.460938 204.699219 C 530.863281 208.3125 525.523438 206.664062 520.972656 208.625 C 516.339844 210.589844 523.246094 213.886719 524.976562 218.207031 C 526.625 222.523438 524.976562 222.523438 521.992188 223.464844 C 519.007812 224.488281 523.011719 218.832031 521.675781 217.183594 C 520.34375 215.535156 515.394531 206.976562 511.46875 204.308594 C 507.464844 201.636719 508.171875 206.585938 508.800781 210.273438 C 509.429688 213.886719 510.449219 213.886719 511.46875 216.554688 C 512.492188 219.226562 507.152344 216.554688 504.5625 214.59375 C 501.890625 212.628906 493.332031 217.261719 489.328125 215.222656 C 485.402344 213.257812 490.664062 213.886719 490.664062 211.925781 C 490.664062 209.960938 486.03125 211.609375 484.695312 208.625 C 483.359375 205.640625 492.941406 202.03125 498.90625 201.011719 C 504.875 199.988281 504.167969 199.988281 504.167969 197.082031 C 504.167969 194.101562 493.566406 195.121094 484.695312 199.359375 C 475.746094 203.679688 478.101562 206.664062 476.765625 209.566406 C 475.429688 212.550781 479.75 212.867188 481.710938 214.515625 C 483.675781 216.164062 479.433594 216.792969 475.429688 218.125 C 471.503906 219.460938 470.484375 218.125 465.851562 219.777344 C 461.21875 221.425781 463.886719 223.386719 459.882812 225.035156 C 455.957031 226.683594 456.273438 226.683594 452.972656 228.019531 C 449.675781 229.355469 453.601562 223.074219 458.234375 222.367188 C 462.867188 221.738281 461.53125 219.070312 460.199219 218.046875 C 458.863281 217.027344 450.304688 214.4375 441.039062 211.765625 C 431.773438 209.097656 416.933594 212.789062 411.988281 215.066406 C 407.042969 217.339844 407.355469 219.070312 406.726562 222.367188 C 406.097656 225.664062 394.792969 230.609375 389.21875 233.59375 C 383.566406 236.578125 388.589844 240.503906 390.238281 243.175781 C 391.886719 245.84375 395.5 244.507812 400.132812 243.175781 C 404.765625 241.839844 404.058594 247.492188 404.765625 249.457031 C 405.390625 251.417969 408.0625 251.730469 412.378906 249.769531 C 416.699219 247.804688 415.679688 243.175781 415.679688 240.503906 C 415.679688 237.835938 414.65625 236.5 417.640625 232.886719 C 420.625 229.277344 423.292969 226.921875 425.886719 225.273438 C 428.554688 223.621094 428.164062 226.605469 424.238281 229.90625 C 420.3125 233.203125 422.902344 234.222656 424.863281 238.148438 C 426.828125 242.152344 430.832031 238.148438 435.777344 237.519531 C 440.726562 236.890625 431.460938 241.839844 427.847656 241.839844 C 424.238281 241.839844 427.847656 245.765625 425.570312 245.765625 C 423.292969 245.765625 422.902344 247.414062 422.589844 251.417969 C 422.273438 255.421875 420.9375 254.402344 418.269531 255.421875 C 415.601562 256.445312 411.675781 256.757812 407.355469 255.738281 C 403.035156 254.714844 403.429688 250.789062 400.445312 248.121094 C 397.460938 245.449219 396.835938 249.457031 396.835938 251.105469 C 396.835938 252.753906 393.851562 256.363281 392.515625 256.363281 C 391.179688 256.363281 387.253906 260.371094 384.898438 263.667969 C 382.621094 266.964844 380.972656 265 380.265625 263.667969 C 379.640625 262.332031 381.914062 260.371094 380.582031 257.070312 C 379.246094 253.773438 373.984375 251.105469 375.632812 243.488281 C 377.28125 235.871094 373.671875 239.875 368.332031 240.503906 C 363.070312 241.132812 361.421875 243.488281 361.03125 245.449219 C 360.714844 247.414062 357.730469 251.417969 354.433594 255.03125 C 351.136719 258.640625 353.414062 261.625 355.0625 265.628906 C 356.710938 269.632812 361.03125 264.296875 362.363281 260.996094 C 363.699219 257.699219 365.347656 256.050781 367.3125 257.699219 C 369.273438 259.347656 364.328125 262.332031 363.699219 266.257812 C 363.070312 270.261719 365.035156 269.871094 369.667969 268.535156 C 374.300781 267.199219 371.945312 266.257812 375.632812 267.90625 C 379.246094 269.554688 372.335938 270.890625 368.019531 271.203125 C 363.699219 271.519531 365.347656 274.503906 369.039062 277.171875 C 372.652344 279.84375 371 283.769531 368.726562 284.082031 C 366.449219 284.394531 362.128906 285.101562 355.535156 286.359375 C 348.9375 287.695312 354.90625 292.953125 353.570312 295.9375 C 352.234375 298.921875 351.921875 305.515625 354.90625 305.832031 C 357.890625 306.144531 357.890625 311.09375 356.242188 312.742188 C 354.589844 314.390625 354.277344 316.039062 350.273438 319.023438 C 346.269531 322.007812 349.253906 324.675781 347.996094 328.601562 C 346.660156 332.527344 343.363281 330.25 339.4375 334.570312 C 335.511719 338.886719 333.785156 342.183594 330.878906 347.132812 C 327.894531 352.078125 327.582031 352.390625 331.191406 358.359375 C 334.804688 364.328125 331.191406 365.976562 328.210938 371.238281 C 325.226562 376.496094 329.230469 376.890625 330.488281 381.445312 C 331.820312 386.078125 334.492188 385.054688 335.433594 389.6875 C 336.453125 394.320312 337.710938 395.65625 342.34375 398.953125 C 346.976562 402.25 351.609375 406.882812 353.886719 405.863281 C 356.160156 404.84375 359.851562 402.25 367.46875 402.566406 C 375.085938 402.878906 372.414062 399.265625 380.34375 397.933594 C 388.277344 396.597656 383.957031 398.953125 384.976562 401.230469 C 386 403.585938 390.238281 405.863281 396.207031 406.175781 C 402.171875 406.492188 397.226562 413.792969 396.835938 418.425781 C 396.519531 423.058594 396.835938 423.058594 399.816406 426.984375 C 402.800781 430.910156 406.726562 439.859375 407.75 444.492188 C 408.769531 449.125 406.726562 454.386719 404.136719 458.707031 C 401.464844 463.023438 402.488281 472.917969 408.0625 480.21875 C 413.714844 487.523438 410.339844 487.128906 410.339844 494.746094 C 410.339844 502.363281 414.34375 501.027344 417.25 505.34375 C 420.234375 509.664062 418.898438 517.59375 421.566406 521.835938 C 424.238281 526.152344 428.871094 522.148438 434.128906 520.183594 C 439.390625 518.222656 441.746094 518.851562 448.027344 514.21875 C 454.308594 509.585938 459.257812 500.320312 459.257812 497.730469 C 459.257812 495.058594 461.21875 494.117188 464.515625 492.78125 C 467.8125 491.449219 467.1875 482.890625 466.792969 480.535156 C 466.480469 478.257812 467.421875 476.214844 468.757812 474.878906 C 470.089844 473.546875 478.335938 465.613281 481.320312 462.316406 C 484.304688 459.019531 481.632812 454.386719 481.003906 449.125 C 480.378906 443.867188 478.335938 441.824219 478.335938 435.542969 C 478.335938 429.261719 476.371094 429.890625 487.285156 419.683594 C 498.199219 409.476562 508.40625 393.222656 509.429688 389.609375 C 510.449219 386 510.058594 383.015625 509.429688 380.34375 C 508.800781 377.675781 494.589844 383.015625 491.292969 383.015625 C 487.992188 383.015625 482.027344 375.710938 481.398438 373.121094 C 480.769531 370.453125 475.746094 367.859375 471.503906 363.855469 C 467.1875 359.929688 470.484375 354.277344 467.1875 349.957031 C 463.886719 345.640625 462.238281 339.359375 461.53125 335.746094 C 460.90625 332.132812 466.480469 338.417969 470.796875 343.363281 C 475.117188 348.308594 480.691406 357.574219 482.339844 360.871094 C 483.988281 364.171875 485.324219 369.117188 485.636719 373.121094 C 485.953125 377.046875 488.621094 377.753906 492.546875 377.441406 C 496.472656 377.125 510.371094 369.824219 515.316406 367.546875 C 520.265625 365.269531 526.230469 358.28125 528.507812 351.6875 C 530.785156 345.089844 523.5625 346.03125 520.265625 342.734375 C 516.964844 339.4375 516.964844 342.734375 512.960938 343.753906 C 509.035156 344.777344 505.660156 339.4375 499.378906 333.546875 C 493.097656 327.582031 497.101562 329.621094 498.359375 328.289062 C 499.613281 326.953125 505.972656 331.269531 509.585938 335.589844 C 513.199219 339.90625 513.90625 338.257812 518.144531 338.257812 C 522.464844 338.257812 523.40625 340.222656 529.058594 341.871094 C 534.710938 343.519531 537.617188 341.242188 542.484375 341.714844 C 547.273438 342.183594 546.566406 344.539062 549.945312 349.800781 C 553.242188 355.0625 551.90625 353.414062 559.210938 354.121094 C 566.511719 354.746094 561.171875 354.121094 561.171875 358.753906 C 561.171875 363.386719 561.800781 365.035156 566.117188 370.6875 C 570.4375 376.339844 572.085938 386.863281 573.421875 392.199219 C 574.753906 397.460938 577.425781 392.199219 581.664062 392.199219 C 585.984375 392.199219 581.980469 395.8125 585.277344 401.152344 C 588.574219 406.414062 590.929688 399.503906 590.929688 397.539062 C 590.929688 395.578125 588.96875 390.628906 587.003906 388.980469 C 585.042969 387.332031 582.371094 387.648438 584.648438 385.054688 C 587.003906 382.386719 584.964844 379.796875 584.964844 376.105469 C 584.964844 372.492188 585.277344 369.824219 586.925781 368.175781 C 588.574219 366.527344 594.542969 360.558594 598.152344 356.238281 C 601.765625 351.921875 604.75 351.292969 609.695312 351.605469 C 614.644531 351.921875 610.71875 352.628906 613.699219 356.554688 C 616.683594 360.558594 617.3125 366.132812 620.609375 370.136719 C 623.90625 374.140625 624.222656 369.507812 626.890625 368.175781 C 629.5625 366.839844 627.914062 372.101562 629.875 376.105469 C 631.839844 380.109375 630.503906 385.371094 630.503906 388.980469 C 630.503906 392.59375 634.820312 396.285156 637.414062 399.582031 C 640.082031 402.878906 639.0625 404.527344 637.414062 405.863281 C 635.765625 407.199219 632.464844 402.566406 629.796875 399.894531 C 627.128906 397.226562 623.203125 398.875 625.871094 401.859375 C 628.539062 404.84375 630.1875 410.101562 633.171875 415.757812 C 636.15625 421.410156 642.4375 428.003906 646.757812 433.894531 C 651.074219 439.863281 664.894531 442.453125 670.234375 442.453125 C 674.945312 442.21875 685.542969 446.847656 690.804688 447.476562 Z M 461.453125 319.257812 C 459.492188 323.183594 458.472656 325.851562 455.488281 324.910156 C 452.503906 323.890625 442.609375 324.28125 437.664062 322.632812 C 432.71875 320.984375 425.414062 318 424.078125 321.613281 C 422.746094 325.226562 427.378906 328.207031 419.132812 325.226562 C 410.890625 322.242188 401.9375 318.628906 400.996094 315.960938 C 399.976562 313.289062 404.292969 306.066406 398.324219 306.066406 C 392.359375 306.066406 384.113281 305.753906 381.445312 307.714844 C 378.773438 309.679688 368.566406 313.367188 365.269531 312.347656 C 362.285156 311.484375 357.652344 310.386719 362.992188 308.03125 C 368.253906 305.753906 374.535156 307.007812 375.242188 303.710938 C 375.871094 300.414062 370.609375 299.785156 375.871094 296.800781 C 381.128906 293.816406 379.167969 291.148438 382.78125 289.5 C 386.390625 287.851562 391.335938 288.164062 394.007812 287.222656 C 396.675781 286.203125 392.988281 285.257812 398.324219 288.242188 C 403.585938 291.226562 406.882812 296.800781 409.554688 297.195312 C 412.222656 297.507812 413.871094 299.472656 412.222656 300.804688 C 410.574219 302.140625 407.90625 303.082031 406.964844 303.082031 C 405.941406 303.082031 405.3125 305.753906 406.335938 306.066406 C 407.355469 306.382812 409.632812 310.699219 411.28125 309.363281 C 412.929688 308.03125 411.28125 306.066406 414.265625 305.046875 C 417.25 304.023438 420.234375 302.769531 418.898438 300.726562 C 417.5625 298.765625 416.226562 296.410156 418.898438 297.742188 C 421.566406 299.078125 423.84375 298.371094 420.859375 295.46875 C 417.878906 292.484375 416.855469 292.484375 413.246094 289.8125 C 409.632812 287.144531 405.628906 285.808594 405.628906 283.847656 C 405.628906 281.882812 403.351562 278.191406 406.964844 279.527344 C 410.574219 280.863281 423.136719 287.773438 423.136719 290.441406 C 423.136719 293.113281 426.433594 297.742188 423.453125 300.019531 C 420.46875 302.296875 426.433594 303.003906 427.769531 304.339844 C 429.105469 305.675781 428.398438 309.285156 432.089844 308.65625 C 435.699219 308.03125 438.371094 308.34375 436.40625 304.652344 C 434.445312 301.042969 431.144531 299.394531 434.445312 298.058594 C 437.742188 296.722656 438.449219 295.074219 439.390625 300.726562 C 440.410156 306.382812 439.078125 308.34375 447.007812 308.65625 C 454.9375 308.972656 460.199219 306.695312 461.21875 308.972656 C 462.082031 311.328125 463.417969 315.332031 461.453125 319.257812 Z M 474.332031 294.523438 C 469.070312 294.210938 460.121094 292.5625 455.800781 292.5625 C 451.484375 292.5625 449.832031 293.191406 449.832031 293.191406 C 446.222656 292.5625 437.585938 294.839844 441.902344 289.183594 C 446.222656 283.53125 443.550781 276.308594 448.8125 278.269531 C 454.074219 280.234375 454.464844 287.851562 457.765625 283.21875 C 461.0625 278.585938 464.671875 273.324219 465.695312 276.9375 C 466.714844 280.546875 461.0625 283.53125 467.972656 286.515625 C 474.960938 289.578125 479.59375 294.839844 474.332031 294.523438 Z M 506.050781 306.695312 C 501.105469 306.695312 495.136719 305.675781 495.136719 303.082031 L 495.136719 296.800781 C 492.46875 290.519531 489.171875 289.183594 489.171875 284.867188 C 489.171875 280.546875 491.839844 276.9375 497.101562 276.9375 C 502.363281 276.9375 505.03125 276.308594 501.027344 280.863281 C 497.101562 285.496094 493.410156 285.808594 498.75 293.113281 C 504.089844 300.414062 511 306.695312 506.050781 306.695312 Z M 506.050781 306.695312 " fill-opacity="1" fill-rule="nonzero"/><path fill="#e5ccf9" d="M 759.039062 478.335938 C 755.660156 469.777344 755.660156 463.101562 753.855469 459.414062 C 751.96875 455.722656 753.460938 451.246094 747.886719 451.246094 C 745.609375 451.246094 745.6875 452.738281 743.804688 457.527344 C 741.921875 462.316406 744.199219 471.269531 739.328125 470.167969 C 734.539062 469.070312 732.261719 466.792969 731.164062 462.003906 C 730.0625 457.214844 732.65625 452.738281 728.964844 452.738281 C 725.273438 452.738281 714.832031 450.148438 712.242188 454.230469 C 709.648438 458.3125 712.949219 459.804688 707.449219 459.804688 C 701.875 459.804688 699.679688 459.804688 696.695312 463.496094 C 693.710938 467.1875 689.628906 477.628906 673.6875 478.335938 C 657.75 479.042969 665.914062 487.601562 665.914062 496.867188 C 665.914062 506.128906 657.355469 511.707031 661.125 515.082031 C 664.816406 518.457031 660.027344 522.855469 667.800781 520.265625 C 675.574219 517.671875 682.640625 516.886719 694.886719 515.082031 C 707.136719 513.195312 712.710938 512.492188 713.105469 518.457031 C 713.496094 524.425781 711.613281 520.34375 716.480469 521.441406 C 721.347656 522.539062 716.089844 530.390625 721.664062 531.097656 C 727.238281 531.804688 723.859375 535.890625 728.730469 535.890625 C 733.519531 535.890625 735.402344 541.070312 731.320312 541.070312 C 727.238281 541.070312 721.269531 549.628906 727.238281 546.644531 C 733.203125 543.660156 739.09375 542.957031 739.09375 538.480469 C 739.09375 534.003906 738.386719 533.691406 745.375 528.117188 C 752.441406 522.539062 768.773438 509.191406 767.675781 498.4375 C 766.496094 487.679688 762.414062 486.894531 759.039062 478.335938 Z M 759.039062 478.335938 " fill-opacity="1" fill-rule="nonzero"/><path fill="#e5ccf9" d="M 807.71875 522.933594 C 804.734375 521.441406 804.734375 524.03125 802.929688 529.605469 C 801.042969 535.183594 791.777344 537.378906 790.289062 538.558594 C 788.796875 539.65625 785.8125 543.035156 785.8125 543.035156 C 778.746094 547.507812 765.003906 551.984375 768.382812 555.675781 C 771.757812 559.367188 773.957031 557.167969 782.121094 553.085938 C 790.289062 549 792.484375 543.820312 796.960938 540.835938 C 801.4375 537.851562 804.027344 538.246094 807.324219 534.554688 C 810.703125 530.707031 810.703125 524.425781 807.71875 522.933594 Z M 807.71875 522.933594 " fill-opacity="1" fill-rule="nonzero"/><g clip-path="url(#daef9250f7)"><path fill="#e5ccf9" d="M 278.035156 430.359375 C 272.070312 428.710938 271.753906 430.675781 271.128906 427.378906 C 270.5 424.078125 266.496094 424.078125 262.882812 424.078125 C 259.269531 424.078125 257.9375 423.765625 254.953125 421.09375 C 251.96875 418.425781 245.6875 418.113281 243.722656 417.484375 C 241.761719 416.855469 242.703125 411.203125 238.777344 405.941406 C 234.773438 400.679688 226.527344 399.660156 221.269531 396.675781 C 216.007812 393.691406 217.65625 382.152344 210.039062 383.09375 C 202.421875 384.113281 201.796875 387.097656 194.808594 383.40625 C 187.898438 379.796875 183.265625 377.441406 179.574219 380.109375 C 175.964844 382.777344 171.332031 387.726562 168.976562 389.058594 C 166.699219 390.394531 162.695312 388.039062 160.417969 388.433594 C 158.140625 388.746094 155.46875 386.078125 153.820312 383.800781 C 152.171875 381.523438 156.804688 369.902344 152.488281 369.902344 C 148.167969 369.902344 142.59375 367.9375 142.59375 366.289062 C 142.59375 364.640625 151.542969 354.746094 148.875 353.097656 C 146.203125 351.449219 140.945312 352.472656 136.3125 358.753906 C 131.679688 365.035156 127.359375 364.71875 125.082031 362.363281 C 122.808594 360.085938 117.46875 346.503906 121.785156 338.886719 C 126.105469 331.269531 133.015625 327.660156 138.273438 327.972656 C 143.535156 328.289062 142.90625 326.636719 148.167969 326.324219 C 153.429688 326.011719 160.101562 327.660156 161.359375 329.621094 C 162.695312 331.585938 160.023438 334.882812 163.320312 338.886719 C 166.621094 342.8125 168.582031 341.164062 168.976562 342.8125 C 169.289062 344.460938 166.304688 346.109375 165.050781 346.109375 C 163.714844 346.109375 152.800781 349.09375 157.117188 351.058594 C 161.4375 353.019531 169.054688 351.371094 170.703125 354.042969 C 172.351562 356.710938 165.441406 362.285156 175.335938 362.601562 C 185.226562 362.914062 191.824219 364.25 197.476562 364.5625 C 203.128906 364.875 207.054688 365.191406 207.683594 366.527344 C 208.3125 367.859375 212.316406 361.578125 203.050781 361.578125 C 193.785156 361.578125 186.5625 356.316406 181.539062 355.296875 C 176.589844 354.277344 173.292969 350.980469 172.980469 347.054688 C 172.664062 343.046875 173.292969 340.144531 171.332031 336.847656 C 169.367188 333.546875 164.421875 325.617188 169.054688 322.320312 C 173.6875 319.023438 182.953125 312.742188 185.226562 308.421875 C 187.503906 304.105469 187.503906 303.160156 192.84375 299.863281 C 198.105469 296.566406 204.386719 292.246094 207.371094 289.265625 C 210.355469 286.28125 215.300781 281.648438 216.320312 284.003906 C 217.34375 286.28125 221.976562 286.988281 227.550781 285.023438 C 233.203125 283.0625 240.113281 278.113281 234.144531 278.113281 C 228.175781 278.113281 224.566406 276.464844 226.214844 274.1875 C 227.863281 271.910156 222.289062 270.890625 220.5625 271.203125 C 218.914062 271.519531 218.914062 267.90625 224.566406 266.886719 C 230.21875 265.867188 225.585938 270.890625 230.21875 270.5 C 234.851562 270.183594 237.835938 266.574219 241.132812 265.867188 C 244.429688 265.238281 245.765625 268.144531 241.445312 271.125 C 237.128906 274.109375 235.792969 273.089844 241.445312 274.425781 C 247.101562 275.757812 248.75 278.742188 252.046875 275.757812 C 255.34375 272.773438 251.417969 271.753906 251.027344 267.828125 C 250.710938 263.902344 251.65625 256.601562 248.042969 253.929688 C 244.429688 251.261719 244.429688 247.964844 244.429688 245.371094 C 244.429688 242.703125 245.058594 237.128906 241.449219 239.71875 C 237.835938 242.390625 234.851562 244.039062 233.515625 242.703125 C 232.183594 241.367188 234.144531 238.699219 231.238281 236.734375 C 228.257812 234.773438 227.941406 231.789062 224.332031 232.101562 C 220.71875 232.417969 217.027344 229.433594 215.066406 233.75 C 213.101562 238.070312 211.0625 241.683594 210.433594 243.015625 C 209.804688 244.351562 212.710938 248.984375 210.117188 251.261719 C 207.449219 253.539062 200.226562 256.914062 199.203125 259.191406 C 198.183594 261.46875 194.257812 267.4375 193.238281 263.511719 C 192.214844 259.585938 196.535156 253.617188 190.566406 251.96875 C 184.601562 250.320312 179.96875 251.652344 179.027344 248.042969 C 178.003906 244.429688 175.414062 241.132812 181.300781 238.148438 C 187.269531 235.164062 193.238281 229.90625 198.8125 229.199219 C 204.464844 228.570312 200.460938 233.203125 205.09375 232.808594 C 209.726562 232.496094 204.464844 230.140625 210.039062 229.199219 C 215.695312 228.175781 214.671875 228.175781 213.023438 226.214844 C 211.375 224.25 212.394531 223.9375 216.636719 221.894531 C 220.953125 219.933594 217.65625 218.597656 221.894531 216.949219 C 226.214844 215.300781 227.15625 213.652344 229.511719 213.652344 C 231.789062 213.652344 231.476562 214.671875 230.140625 217.65625 C 228.804688 220.640625 227.863281 222.601562 231.789062 220.640625 C 235.792969 218.675781 237.757812 217.339844 234.773438 220.324219 C 231.789062 223.308594 229.828125 223.308594 225.507812 223.9375 C 221.191406 224.566406 222.523438 225.273438 224.488281 227.550781 C 226.449219 229.824219 231.398438 230.21875 233.046875 231.476562 C 234.695312 232.808594 236.65625 237.441406 240.664062 235.085938 C 244.589844 232.808594 241.683594 232.417969 246.945312 230.140625 C 252.203125 227.863281 259.820312 226.527344 259.191406 223.542969 C 258.5625 220.5625 253.226562 218.910156 252.597656 215.300781 C 251.96875 211.6875 259.898438 209.648438 249.613281 207.996094 C 239.40625 206.347656 245.292969 205.015625 240.347656 205.015625 C 235.402344 205.015625 226.136719 205.015625 222.839844 206.664062 C 219.539062 208.3125 217.578125 205.640625 215.929688 208.3125 C 214.28125 210.980469 216.242188 214.59375 214.59375 214.59375 C 212.945312 214.59375 209.960938 217.261719 208.625 214.59375 C 207.292969 211.925781 204.308594 209.332031 208.3125 208.3125 C 212.238281 207.292969 212.945312 207.996094 213.574219 205.015625 C 214.203125 202.03125 207.921875 202.34375 211.609375 201.714844 C 215.222656 201.089844 216.871094 202.03125 221.816406 202.03125 C 226.765625 202.03125 237.992188 203.992188 239.640625 201.011719 C 241.289062 198.027344 236.972656 198.027344 232.023438 197.710938 C 227.078125 197.398438 218.441406 195.75 214.828125 197.398438 C 211.21875 199.046875 206.585938 201.714844 204.9375 204.308594 C 203.289062 206.976562 203.289062 203.679688 199.988281 204.308594 C 196.691406 204.9375 191.039062 208.625 194.023438 210.589844 C 197.007812 212.550781 197.007812 214.90625 193.707031 214.90625 C 190.410156 214.90625 189.390625 218.207031 187.113281 218.207031 C 184.835938 218.207031 178.554688 217.890625 181.460938 216.242188 C 184.445312 214.59375 187.742188 214.59375 187.425781 210.589844 C 187.113281 206.585938 190.726562 205.328125 190.726562 203.992188 C 190.726562 202.660156 182.792969 206.976562 176.511719 205.015625 C 170.230469 203.050781 167.5625 200.066406 161.28125 200.382812 C 155 200.695312 146.753906 208.941406 150.679688 209.648438 C 154.683594 210.273438 157.589844 209.019531 158.296875 210.980469 C 158.925781 212.945312 157.667969 214.59375 159.945312 215.613281 C 162.222656 216.636719 166.542969 219.226562 160.964844 217.890625 C 155.390625 216.554688 157.984375 214.28125 149.425781 213.886719 C 140.867188 213.574219 135.527344 210.902344 126.652344 213.257812 C 117.703125 215.535156 119.039062 217.578125 113.070312 215.535156 C 107.101562 213.574219 94.539062 208.941406 84.648438 210.902344 C 74.753906 212.867188 62.503906 216.164062 59.519531 218.207031 C 56.539062 220.167969 62.503906 222.132812 57.246094 222.523438 C 51.984375 222.835938 39.421875 222.523438 42.011719 225.820312 C 44.679688 229.121094 47.980469 229.433594 43.976562 230.140625 C 40.050781 230.769531 34.710938 231.160156 32.746094 234.066406 C 30.785156 237.050781 23.480469 238.699219 28.113281 240.035156 C 32.746094 241.367188 40.363281 244.351562 37.066406 244.664062 C 33.765625 244.980469 16.886719 251.574219 9.664062 253.222656 C 2.359375 254.875 -3.527344 262.804688 2.753906 260.449219 C 10.761719 257.542969 32.195312 250.867188 36.121094 249.21875 C 40.050781 247.570312 41.777344 248.90625 41.382812 251.183594 C 41.070312 253.460938 46.015625 250.160156 49.941406 247.179688 C 53.867188 244.195312 53.867188 238.226562 57.246094 240.269531 C 60.542969 242.230469 62.503906 240.269531 65.175781 239.640625 C 67.84375 239.011719 70.433594 237.363281 72.789062 238.621094 C 75.066406 239.953125 81.035156 241.289062 82.683594 242.625 C 84.332031 243.960938 84.960938 246.941406 83.3125 247.257812 C 81.664062 247.570312 81.347656 249.21875 81.664062 251.890625 C 81.976562 254.558594 83.3125 256.835938 80.015625 257.542969 C 76.714844 258.171875 77.34375 262.175781 79.386719 261.859375 C 81.347656 261.546875 82.683594 260.527344 83 258.5625 C 83.3125 256.601562 87.628906 252.910156 87.003906 255.578125 C 86.375 258.25 84.726562 260.839844 84.726562 262.882812 C 84.726562 264.84375 82.449219 264.53125 82.054688 266.492188 C 81.742188 268.457031 82.371094 268.457031 84.019531 270.105469 C 85.667969 271.753906 84.648438 272.773438 84.332031 276.386719 C 84.019531 280 74.125 289.96875 72.789062 293.269531 C 71.457031 296.566406 72.164062 301.199219 72.164062 304.808594 C 72.164062 308.421875 70.828125 313.054688 74.441406 314.390625 C 78.050781 315.722656 78.367188 316.351562 78.367188 319.652344 C 78.367188 322.949219 78.367188 326.953125 80.328125 329.230469 C 82.292969 331.507812 81.347656 331.191406 81.347656 334.882812 C 81.347656 338.574219 83.625 336.53125 84.019531 339.515625 C 84.332031 342.5 82.371094 343.832031 85.667969 346.109375 C 88.964844 348.386719 92.578125 350.035156 90.929688 346.425781 C 89.28125 342.8125 88.257812 339.828125 86.609375 334.492188 C 84.960938 329.230469 83.941406 319.652344 85.980469 322.554688 C 87.945312 325.539062 90.613281 334.492188 93.597656 340.691406 C 96.582031 346.976562 100.195312 346.347656 100.195312 350.902344 C 100.195312 355.53125 96.582031 359.851562 103.804688 362.835938 C 111.109375 365.820312 116.367188 372.101562 120.6875 371.394531 C 125.003906 370.765625 127.597656 368.097656 129.246094 371.078125 C 130.894531 374.0625 134.507812 377.988281 138.511719 377.988281 C 142.4375 377.988281 143.769531 380.660156 144.476562 384.585938 C 145.105469 388.511719 147.777344 389.21875 151.78125 390.550781 C 155.707031 391.886719 156.726562 396.207031 159.710938 395.8125 C 162.695312 395.5 166.621094 394.164062 166.621094 397.148438 C 166.621094 400.132812 167.953125 407.355469 163.007812 411.988281 C 158.0625 416.621094 155.707031 419.917969 158.375 422.902344 C 161.046875 425.886719 158.691406 428.867188 157.355469 431.144531 C 156.019531 433.421875 158.375 435.464844 160.964844 439.078125 C 163.636719 442.6875 167.246094 447.007812 169.523438 454.308594 C 171.800781 461.609375 175.179688 464.203125 180.753906 466.558594 C 186.40625 468.835938 190.644531 472.839844 190.644531 478.492188 C 190.644531 484.144531 190.332031 503.304688 190.332031 508.878906 C 190.332031 514.53125 193.316406 520.105469 192.296875 524.425781 C 191.273438 528.742188 192.296875 532.355469 193.628906 534.003906 C 194.964844 535.652344 194.652344 539.265625 194.964844 542.957031 C 195.277344 546.566406 199.285156 543.976562 199.285156 547.273438 C 199.285156 550.570312 197.632812 555.519531 199.597656 557.167969 C 201.558594 558.816406 197.320312 564.785156 206.191406 570.359375 C 215.144531 576.011719 215.773438 576.324219 216.398438 577.269531 C 217.027344 578.289062 220.011719 575.304688 220.011719 576.953125 C 220.011719 578.601562 215.066406 583.550781 224.332031 583.550781 C 233.59375 583.550781 239.171875 584.882812 233.59375 580.566406 C 227.941406 576.246094 224.644531 578.289062 223.703125 573.96875 C 222.679688 569.652344 221.425781 570.359375 220.71875 567.375 C 220.089844 564.390625 223.074219 563.054688 222.054688 560.074219 C 221.03125 557.089844 217.105469 557.089844 217.421875 554.105469 C 217.734375 551.121094 220.089844 548.136719 220.71875 546.804688 C 221.347656 545.46875 221.347656 544.132812 219.699219 542.875 C 218.050781 541.542969 218.363281 541.226562 220.71875 540.519531 C 223.074219 539.894531 223.386719 540.835938 224.332031 537.539062 C 225.351562 534.238281 228.257812 534.554688 229.589844 533.613281 C 230.925781 532.589844 235.558594 531.335938 233.910156 527.015625 C 232.261719 522.699219 228.964844 520.734375 232.574219 520.734375 C 236.1875 520.734375 239.878906 520.421875 242.152344 515.789062 C 244.429688 511.15625 243.488281 510.136719 246.160156 506.523438 C 248.828125 502.910156 249.140625 499.925781 249.140625 497.257812 C 249.140625 494.589844 247.808594 491.996094 251.417969 490.347656 C 255.03125 488.699219 266.964844 486.738281 268.613281 481.789062 C 270.261719 476.84375 271.914062 471.582031 271.285156 466.242188 C 270.65625 460.984375 270.261719 457.683594 273.953125 453.367188 C 277.566406 449.046875 282.199219 445.4375 282.199219 441.511719 C 282.277344 437.585938 284.003906 432.007812 278.035156 430.359375 Z M 278.035156 430.359375 " fill-opacity="1" fill-rule="nonzero"/></g><g clip-path="url(#db278300c1)"><path fill="#e5ccf9" d="M 339.203125 213.179688 C 342.8125 209.253906 341.871094 207.210938 346.816406 205.25 C 351.765625 203.285156 350.429688 200.617188 349.800781 196.691406 C 349.171875 192.6875 349.800781 194.414062 351.765625 193.078125 C 353.726562 191.746094 356.710938 190.800781 361.34375 190.410156 C 365.976562 190.097656 361.65625 188.445312 361.65625 186.484375 C 361.65625 184.519531 358.359375 184.835938 353.726562 185.464844 C 349.09375 186.089844 349.800781 185.464844 346.425781 184.128906 C 343.128906 182.792969 323.65625 182.792969 318.628906 182.792969 C 313.683594 182.792969 304.734375 183.8125 300.101562 184.128906 C 295.46875 184.441406 295.78125 184.128906 286.910156 183.109375 C 277.957031 182.085938 254.558594 182.792969 245.921875 183.734375 C 237.363281 184.757812 231.082031 185.699219 225.429688 189.390625 C 219.777344 193 216.164062 191.667969 209.882812 192.371094 C 203.601562 193 202.972656 193 199.988281 193 C 197.007812 193 197.320312 191.351562 192.058594 193.316406 C 186.796875 195.277344 188.449219 196.613281 186.40625 193.941406 C 184.441406 191.273438 181.773438 193.941406 172.507812 196.21875 C 163.242188 198.496094 175.804688 201.167969 178.789062 202.1875 C 178.789062 202.1875 185.070312 201.875 188.683594 200.851562 C 192.296875 199.832031 193.945312 202.1875 196.300781 201.480469 C 198.578125 200.851562 199.28125 198.496094 212.472656 195.511719 C 225.664062 192.53125 234.929688 194.886719 240.269531 197.164062 C 245.53125 199.441406 245.53125 198.183594 250.164062 195.199219 C 254.796875 192.214844 262.726562 189.9375 270.96875 188.605469 C 279.214844 187.269531 273.953125 190.253906 268.691406 192.214844 C 263.433594 194.179688 258.800781 193.550781 259.742188 196.847656 C 260.761719 200.144531 270.96875 199.125 273.953125 199.125 C 276.9375 199.125 277.25 203.757812 277.566406 206.425781 C 277.878906 209.097656 277.25 210.433594 277.878906 213.023438 C 278.507812 215.691406 280.15625 215.300781 277.25 217.96875 C 274.269531 220.640625 272.617188 220.246094 272.617188 224.878906 C 272.617188 229.511719 274.582031 234.457031 279.214844 237.757812 C 283.847656 241.054688 286.515625 241.367188 289.109375 236.105469 C 291.777344 230.847656 298.058594 227.550781 301.355469 225.898438 C 304.652344 224.25 309.285156 225.898438 313.605469 221.972656 C 317.921875 218.046875 323.5 219.695312 329.78125 217.65625 C 336.21875 215.851562 335.511719 217.183594 339.203125 213.179688 Z M 339.203125 213.179688 " fill-opacity="1" fill-rule="nonzero"/></g><path fill="#e5ccf9" d="M 345.796875 220.796875 C 335.902344 222.132812 326.640625 218.832031 328.289062 224.09375 C 329.9375 229.355469 330.25 237.285156 335.589844 235.636719 C 344.699219 232.808594 354.75 231.316406 352.472656 227.078125 C 350.039062 222.757812 355.691406 219.460938 345.796875 220.796875 Z M 345.796875 220.796875 " fill-opacity="1" fill-rule="nonzero"/></svg>